<svg xmlns="http://www.w3.org/2000/svg" width="31.456" height="31.596" viewBox="0 0 31.456 31.596">
  <path id="_5282539_behance_portfolio_social_network_behance_logo_icon" data-name="5282539_behance_portfolio_social network_behance logo_icon" d="M27.613,0a3.854,3.854,0,0,1,3.843,3.86V27.736a3.854,3.854,0,0,1-3.843,3.86H3.843A3.854,3.854,0,0,1,0,27.736V3.86A3.854,3.854,0,0,1,3.843,0h23.77ZM28,20.405a7.834,7.834,0,0,0-.209-2.448,5.986,5.986,0,0,0-.962-2.086,4.862,4.862,0,0,0-1.707-1.457,5.165,5.165,0,0,0-2.432-.543,5.675,5.675,0,0,0-2.283.447,5.326,5.326,0,0,0-2.919,3.069,6.473,6.473,0,0,0-.4,2.3,6.746,6.746,0,0,0,.393,2.344,5.412,5.412,0,0,0,1.112,1.832,4.965,4.965,0,0,0,1.768,1.183,6.288,6.288,0,0,0,2.335.416,5.664,5.664,0,0,0,3.169-.855,5.046,5.046,0,0,0,1.952-2.837H25.16a1.94,1.94,0,0,1-.8.975,2.671,2.671,0,0,1-1.569.461,2.67,2.67,0,0,1-1.945-.664,3.088,3.088,0,0,1-.743-2.134H28Zm-17.23,4.77a7.668,7.668,0,0,0,1.977-.255,5.252,5.252,0,0,0,1.719-.788,3.867,3.867,0,0,0,1.2-1.375,4.217,4.217,0,0,0,.44-1.991,4.232,4.232,0,0,0-.684-2.437,3.611,3.611,0,0,0-2.075-1.414,3.767,3.767,0,0,0,1.541-1.252A3.336,3.336,0,0,0,15.4,13.75a4.106,4.106,0,0,0-.346-1.781,2.937,2.937,0,0,0-.987-1.158,4.286,4.286,0,0,0-1.527-.626,9.226,9.226,0,0,0-1.972-.193H3.44V25.175h7.326Zm-.379-6.767a2.8,2.8,0,0,1,1.736.5,1.987,1.987,0,0,1,.656,1.676,2.113,2.113,0,0,1-.2.985,1.614,1.614,0,0,1-.541.605,2.2,2.2,0,0,1-.785.322,4.244,4.244,0,0,1-.932.1H6.768V18.408ZM24.3,16.762a2.245,2.245,0,0,0-1.7-.612,2.578,2.578,0,0,0-1.2.247,2.409,2.409,0,0,0-.761.606,2.17,2.17,0,0,0-.4.775,3.45,3.45,0,0,0-.137.724h4.891a2.947,2.947,0,0,0-.693-1.74ZM9.883,12.578a4.465,4.465,0,0,1,.856.075,2.076,2.076,0,0,1,.732.266,1.387,1.387,0,0,1,.513.528,1.811,1.811,0,0,1,.185.872A1.6,1.6,0,0,1,11.6,15.7a2.4,2.4,0,0,1-1.465.425H6.768V12.578H9.883Zm15.728-.069v-1.5H19.483v1.5Z" transform="translate(0 0)" fill-rule="evenodd"/>
</svg>
