<svg xmlns="http://www.w3.org/2000/svg" width="31.456" height="31.596" viewBox="0 0 31.456 31.596">
  <g id="_x37_1-github" transform="translate(0 0)">
    <path id="Trazado_1606" data-name="Trazado 1606" d="M39.047,15.106l-18.521-.022a11.257,11.257,0,0,0-2.625.172,3.37,3.37,0,0,0-2.09,1.492c-.709,1.138-.724,1.364-.724,3.044l-.033,22.431a4.638,4.638,0,0,0,1.162,3.249c.961,1.1,1.977,1.111,4.616,1.111l21.339.074a4.282,4.282,0,0,0,3.364-1.4c.961-1.321.975-1.53.975-4.1L46.5,19.329a3.949,3.949,0,0,0-3.249-4.166A29.89,29.89,0,0,0,39.047,15.106Zm-4.611,26.25c-.557.109-.754-.235-.754-.53,0-.361.014-1.55.014-3.025a2.64,2.64,0,0,0-.744-2.042c2.444-.273,5.008-1.205,5.008-5.44a4.269,4.269,0,0,0-1.127-2.96,3.983,3.983,0,0,0-.11-2.917s-.92-.3-3.014,1.13a10.346,10.346,0,0,0-5.494,0c-2.1-1.426-3.017-1.13-3.017-1.13a3.979,3.979,0,0,0-.107,2.917,4.278,4.278,0,0,0-1.13,2.96c0,4.224,2.562,5.17,5,5.449a2.353,2.353,0,0,0-.7,1.474,2.33,2.33,0,0,1-3.194-.916,2.3,2.3,0,0,0-1.68-1.137s-1.071-.014-.074.67a2.91,2.91,0,0,1,1.218,1.613s.644,2.144,3.7,1.478c.006.92.015,1.613.015,1.876,0,.293-.2.633-.749.531a10.968,10.968,0,1,1,6.943,0Z" transform="translate(-15.054 -15.061)"/>
  </g>
</svg>
