<svg xmlns="http://www.w3.org/2000/svg" width="31.456" height="31.596" viewBox="0 0 31.456 31.596">
  <path id="_5282544_camera_instagram_social_media_social_network_instagram_logo_icon" data-name="5282544_camera_instagram_social media_social network_instagram logo_icon" d="M27.613,0a3.854,3.854,0,0,1,3.843,3.86V27.736a3.854,3.854,0,0,1-3.843,3.86H3.843A3.854,3.854,0,0,1,0,27.736V3.86A3.854,3.854,0,0,1,3.843,0h23.77ZM15.728,5c-2.92,0-3.286.012-4.433.065a7.86,7.86,0,0,0-2.61.5A5.51,5.51,0,0,0,5.541,8.724a7.96,7.96,0,0,0-.5,2.622c-.052,1.152-.065,1.52-.065,4.453s.012,3.3.065,4.453a7.96,7.96,0,0,0,.5,2.622,5.51,5.51,0,0,0,3.144,3.158,7.861,7.861,0,0,0,2.61.5c1.147.053,1.513.065,4.433.065s3.286-.012,4.433-.065a7.861,7.861,0,0,0,2.61-.5,5.51,5.51,0,0,0,3.144-3.158,7.958,7.958,0,0,0,.5-2.622c.052-1.152.065-1.52.065-4.453s-.012-3.3-.065-4.453a7.958,7.958,0,0,0-.5-2.622,5.51,5.51,0,0,0-3.144-3.158,7.86,7.86,0,0,0-2.61-.5C19.014,5.011,18.648,5,15.728,5Zm0,1.946c2.871,0,3.211.011,4.345.063a5.93,5.93,0,0,1,2,.372,3.569,3.569,0,0,1,2.041,2.05,6,6,0,0,1,.37,2.005c.052,1.139.063,1.48.063,4.364s-.011,3.225-.063,4.364a6,6,0,0,1-.37,2.005,3.569,3.569,0,0,1-2.041,2.05,5.927,5.927,0,0,1-2,.372c-1.134.052-1.474.063-4.345.063s-3.211-.011-4.345-.063a5.927,5.927,0,0,1-2-.372,3.569,3.569,0,0,1-2.041-2.05,6,6,0,0,1-.37-2.005c-.052-1.139-.063-1.48-.063-4.364s.011-3.225.063-4.364a6,6,0,0,1,.37-2.005,3.569,3.569,0,0,1,2.041-2.05,5.93,5.93,0,0,1,2-.372c1.134-.052,1.474-.063,4.345-.063Zm0,3.308A5.546,5.546,0,1,0,21.249,15.8a5.533,5.533,0,0,0-5.521-5.546Zm0,9.146a3.6,3.6,0,1,1,3.584-3.6A3.592,3.592,0,0,1,15.728,19.4Zm7.029-9.365a1.29,1.29,0,1,1-1.29-1.3,1.293,1.293,0,0,1,1.29,1.3Z" transform="translate(0 0)" fill-rule="evenodd"/>
</svg>
