<svg xmlns="http://www.w3.org/2000/svg" width="31.456" height="31.596" viewBox="0 0 31.456 31.596">
  <path id="_5282542_linkedin_network_social_network_linkedin_logo_icon" data-name="5282542_linkedin_network_social network_linkedin logo_icon" d="M27.613,0a3.854,3.854,0,0,1,3.843,3.86V27.736a3.854,3.854,0,0,1-3.843,3.86H3.843A3.854,3.854,0,0,1,0,27.736V3.86A3.854,3.854,0,0,1,3.843,0h23.77ZM9.858,26.121V12.192H5.248V26.121Zm16.621,0V18.133c0-4.279-2.274-6.269-5.307-6.269a4.575,4.575,0,0,0-4.154,2.3V12.192H12.409c.061,1.307,0,13.929,0,13.929h4.609V18.342a3.179,3.179,0,0,1,.152-1.13,2.524,2.524,0,0,1,2.365-1.693c1.667,0,2.335,1.278,2.335,3.15v7.453H26.48ZM7.584,5.475a2.413,2.413,0,1,0-.061,4.814h.03a2.414,2.414,0,1,0,.031-4.814Z" transform="translate(0 0)" fill-rule="evenodd"/>
</svg>
