<svg xmlns="http://www.w3.org/2000/svg" width="40" height="40" viewBox="0 0 40 40">
  <g id="Dribbble-Light-Preview" transform="translate(-380 -2159)">
    <g id="icons" transform="translate(380 2159)">
      <path id="profile-_1336_" data-name="profile-[#1336]" d="M344,2023c7.57,0,13.916,4.428,15.568,12H328.432c1.652-7.573,8-12,15.568-12m-8-12a8,8,0,1,1,8,8,8.008,8.008,0,0,1-8-8m15.516,9.346a12,12,0,1,0-15.032,0C329.166,2023.1,324,2029.891,324,2039h40c0-9.11-5.166-15.9-12.484-18.654" transform="translate(-324 -1999)" fill="#203442" fill-rule="evenodd"/>
    </g>
  </g>
</svg>
