<svg xmlns="http://www.w3.org/2000/svg" width="538.067" height="519.116" viewBox="0 0 538.067 519.116">
  <g id="Product_hunt-pana" data-name="Product hunt-pana" transform="translate(-45.468 -34.024)">
    <g id="freepik--background-complete--inject-17" transform="translate(62.756 34.024)">
      <path id="Trazado_902" data-name="Trazado 902" d="M448.468,273.384a1.475,1.475,0,0,1,0-.234c0-.167,0-.379,0-.657v-2.54c0-2.228,0-5.481-.084-9.581,0-8.244-.083-19.964-.153-34.012l.306.245H389.779c-.084,0,.682-.546.362-.29v47.024l-.306-.245,42.5.123,11.972.067h-.056l-11.9.067-42.694.134h-.32V226.36c-.334.256.432-.357.362-.29H448.76v.256c0,14.115-.125,25.89-.167,34.168,0,4.089,0,7.3-.083,9.525v3.13C448.509,273.317,448.482,273.395,448.468,273.384Z" transform="translate(72.02 -12.123)" fill="#e0e0e0"/>
      <path id="Trazado_903" data-name="Trazado 903" d="M448.7,246.56c0,.156-13.336.29-29.776.29s-29.776-.134-29.776-.29,13.336-.29,29.776-.29S448.7,246.393,448.7,246.56Z" transform="translate(71.981 -9.819)" fill="#e0e0e0"/>
      <path id="Trazado_904" data-name="Trazado 904" d="M410.982,227.06c.195,0,.362,10.505.362,23.451s-.167,23.451-.362,23.451-.362-10.494-.362-23.451S410.787,227.06,410.982,227.06Z" transform="translate(80.398 -12.01)" fill="#e0e0e0"/>
      <path id="Trazado_905" data-name="Trazado 905" d="M415.528,226.932h-.5a8.985,8.985,0,0,1-1.392-.245,30.583,30.583,0,0,1-4.942-1.459,29.8,29.8,0,0,1-6.612-3.531,15.927,15.927,0,0,1-3.174-2.752,2.85,2.85,0,0,1-.654-2.016,2.282,2.282,0,0,1,1.531-1.827,4.552,4.552,0,0,1,2.7,0,8.983,8.983,0,0,1,2.269.9,27.035,27.035,0,0,1,3.605,2.339,24.427,24.427,0,0,1,4.858,4.924,19.385,19.385,0,0,1,2.213,3.832c.195.468.32.847.4,1.114s.111.4.084.4a35.959,35.959,0,0,0-3.132-5.113,25.955,25.955,0,0,0-4.886-4.746,28.3,28.3,0,0,0-3.55-2.228,8.725,8.725,0,0,0-2.074-.824,3.94,3.94,0,0,0-2.185,0,1.634,1.634,0,0,0-1.114,1.359,2.272,2.272,0,0,0,.543,1.671,15.711,15.711,0,0,0,3.007,2.64,30.924,30.924,0,0,0,6.32,3.5A60.634,60.634,0,0,0,415.528,226.932Z" transform="translate(75.546 -13.397)" fill="#e0e0e0"/>
      <path id="Trazado_906" data-name="Trazado 906" d="M410.7,227.693a6.4,6.4,0,0,1,.209-1.582,34.643,34.643,0,0,1,1.128-4.245,41.025,41.025,0,0,1,2.589-6.094c.585-1.114,1.253-2.284,2-3.453a4.63,4.63,0,0,1,1.67-1.66,2.5,2.5,0,0,1,2.784.3c1.253,1.315.9,2.874.71,4.155a13.72,13.72,0,0,1-1.239,3.71,17.606,17.606,0,0,1-4.26,5.492,19.4,19.4,0,0,1-4.176,2.807,11.716,11.716,0,0,1-1.295.579c-.292.123-.459.178-.473.156a28.761,28.761,0,0,0,5.568-3.81,17.984,17.984,0,0,0,4.023-5.414,14.04,14.04,0,0,0,1.155-3.609,9.083,9.083,0,0,0,.167-1.927,2.814,2.814,0,0,0-.724-1.76,1.643,1.643,0,0,0-1.865-.2,4,4,0,0,0-1.392,1.437c-.752,1.114-1.392,2.306-2.018,3.409a48.139,48.139,0,0,0-2.784,5.994c-.64,1.749-1.058,3.186-1.392,4.178A7.259,7.259,0,0,1,410.7,227.693Z" transform="translate(80.292 -13.913)" fill="#e0e0e0"/>
      <path id="Trazado_907" data-name="Trazado 907" d="M308.477,348.86l7.837,47.558h-58.1l8.464-47.558Z" transform="translate(20.647 1.88)" fill="#e0e0e0"/>
      <path id="Trazado_908" data-name="Trazado 908" d="M267.68,355.06a18.787,18.787,0,0,0,2.9,4.523,15.1,15.1,0,0,0,5.081,3.609,20.145,20.145,0,0,0,8.046,1.56,20.639,20.639,0,0,0,8.1-1.426,13.292,13.292,0,0,0,5-3.643,16.121,16.121,0,0,0,2.617-4.623,3.264,3.264,0,0,1-.278,1.37,11.829,11.829,0,0,1-1.907,3.476,13.121,13.121,0,0,1-5.123,3.888,20.6,20.6,0,0,1-8.352,1.537,20.185,20.185,0,0,1-8.352-1.671,14.968,14.968,0,0,1-5.164-3.843,12.953,12.953,0,0,1-2.1-3.4A3.247,3.247,0,0,1,267.68,355.06Z" transform="translate(24.36 2.587)" fill="#fff"/>
      <path id="Trazado_909" data-name="Trazado 909" d="M239.205,46.179a2.858,2.858,0,0,1,1.921-.334,8.734,8.734,0,0,1,2.255.7l2.951,1.114c4.455,1.782,10.844,4.311,18.737,7.442l12.918,5.169,3.522,1.448,1.81.724a7.063,7.063,0,0,1,1.837.9,2.792,2.792,0,0,1,1.1,2.535,3.133,3.133,0,0,1-1.75,2.288,5.319,5.319,0,0,1-2.241.479L244.3,69.763l-37.961,1.114-4.329.111A4.054,4.054,0,0,1,198.4,69.2,2.629,2.629,0,0,1,199,65.841a7.14,7.14,0,0,1,1.684-.969l1.67-.824,12.333-6.016,17.888-8.678,4.886-2.328,1.281-.59.445-.189a3.789,3.789,0,0,1-.4.234l-1.239.646-4.761,2.362-17.8,8.79-12.292,6.072-1.67.824a6.736,6.736,0,0,0-1.545.891,2.187,2.187,0,0,0-.513,2.818,3.384,3.384,0,0,0,3.047,1.471l4.315-.123L244.3,69.117,282.261,68a4.532,4.532,0,0,0,1.907-.39,2.768,2.768,0,0,0,1.225-1.181,2.218,2.218,0,0,0-.668-2.83,6.808,6.808,0,0,0-1.671-.813l-1.81-.735-3.536-1.437L264.8,55.5l-18.639-7.6-2.909-1.2a9.007,9.007,0,0,0-2.186-.746A3.68,3.68,0,0,0,239.205,46.179Z" transform="translate(-2.944 -32.681)" fill="#e0e0e0"/>
      <path id="Trazado_910" data-name="Trazado 910" d="M229.339,47.2a15.661,15.661,0,0,1-.1-3.565V43.4h.306a6.669,6.669,0,0,0,4.023-.78,4.137,4.137,0,0,0,2.38-3.42,4.429,4.429,0,0,0-2.074-3.721,6.851,6.851,0,0,0-4.037-1,9.256,9.256,0,0,0-3.8,1.114,2.714,2.714,0,0,1,.807-.657,7.552,7.552,0,0,1,7.489.178,4.864,4.864,0,0,1,2.38,4.144,3.912,3.912,0,0,1-.821,2.228,5.664,5.664,0,0,1-1.907,1.582,7.269,7.269,0,0,1-4.5.746l.32-.189a18.2,18.2,0,0,1-.473,3.576Z" transform="translate(8.036 -34.024)" fill="#e0e0e0"/>
      <path id="Trazado_911" data-name="Trazado 911" d="M141.316,199.423a3.934,3.934,0,0,1,0-.535c0-.379-.084-.9-.139-1.571a4.355,4.355,0,0,0-.1-1.114c-.1-.368-.167-.88-.264-1.381a20.331,20.331,0,0,0-.863-3.431,28.736,28.736,0,0,0-4.608-8.79,37.049,37.049,0,0,0-10.51-9.369,46.53,46.53,0,0,0-17.359-6.15,44.491,44.491,0,0,0-5.22-.479c-.891,0-1.782-.1-2.687-.089l-2.784.111a8.421,8.421,0,0,0-1.392.078L94,166.871c-.919.123-1.851.212-2.784.357a55.851,55.851,0,0,0-5.568,1.292,52.126,52.126,0,0,0-5.373,1.894c-.863.379-1.7.813-2.561,1.225a22.041,22.041,0,0,0-2.478,1.37,47.253,47.253,0,0,0-4.677,3.175,41.507,41.507,0,0,0-4.023,3.821,30.128,30.128,0,0,0-5.707,9.046,29.285,29.285,0,0,0-2.2,10.372,28.963,28.963,0,0,0,2.2,10.416,30.3,30.3,0,0,0,5.874,9.079,41.955,41.955,0,0,0,4.037,3.821,43.934,43.934,0,0,0,4.677,3.175,20.765,20.765,0,0,0,2.408,1.359c.863.412,1.7.858,2.561,1.225a52.434,52.434,0,0,0,10.872,3.231c.919.156,1.851.245,2.784.368l1.392.167a9.9,9.9,0,0,1,1.392.067l2.784.111c.9,0,1.8-.056,2.687-.078a49.5,49.5,0,0,0,5.22-.479c11.619-1.763,21.746-7.408,27.841-15.519a28.768,28.768,0,0,0,4.608-8.8,20.274,20.274,0,0,0,.863-3.42c.1-.5.209-.969.265-1.393s.07-.813.1-1.114a12.13,12.13,0,0,1,.139-1.571,4.38,4.38,0,0,1,0-.546v3.242a10.889,10.889,0,0,1-.223,1.4,19.054,19.054,0,0,1-.821,3.454,28.47,28.47,0,0,1-4.524,8.912,37.146,37.146,0,0,1-10.552,9.525,47.772,47.772,0,0,1-22.983,6.784c-.9,0-1.81.089-2.784.089l-2.784-.111a9.711,9.711,0,0,1-1.392-.067l-1.392-.178c-.933-.111-1.879-.2-2.784-.357a54.763,54.763,0,0,1-11.039-3.208c-.877-.39-1.726-.836-2.6-1.248a22.969,22.969,0,0,1-2.534-1.393,48.516,48.516,0,0,1-4.761-3.22,43.415,43.415,0,0,1-4.107-3.888,30.541,30.541,0,0,1-5.986-9.235,26.826,26.826,0,0,1,0-21.167,30.815,30.815,0,0,1,5.986-9.235,36.242,36.242,0,0,1,8.867-7.108,23.216,23.216,0,0,1,2.617-1.381c.877-.412,1.726-.858,2.6-1.237a52.907,52.907,0,0,1,11.039-3.208c.933-.156,1.879-.245,2.784-.368l1.392-.167a9.711,9.711,0,0,0,1.392-.067l2.784-.111c.919,0,1.824.067,2.784.089a47.688,47.688,0,0,1,5.276.5c11.778,1.8,22.021,7.567,28.119,15.83a28.241,28.241,0,0,1,4.524,8.912,18.632,18.632,0,0,1,.821,3.453c.083.5.181.969.223,1.393a10.921,10.921,0,0,1,0,1.17v1.582A2.009,2.009,0,0,0,141.316,199.423Z" transform="translate(-57.887 -18.976)" fill="#e0e0e0"/>
      <path id="Trazado_912" data-name="Trazado 912" d="M88.114,178.822a28.2,28.2,0,0,1-.362-6.317,28.059,28.059,0,0,1,.362-6.305,28.059,28.059,0,0,1,.362,6.305A28.2,28.2,0,0,1,88.114,178.822Z" transform="translate(-46.195 -18.95)" fill="#e0e0e0"/>
      <path id="Trazado_913" data-name="Trazado 913" d="M76.262,196.033a67.389,67.389,0,0,1-8.909.29,67.522,67.522,0,0,1-8.923-.29,69.9,69.9,0,0,1,8.923-.29A69.756,69.756,0,0,1,76.262,196.033Z" transform="translate(-57.674 -15.585)" fill="#e0e0e0"/>
      <path id="Trazado_914" data-name="Trazado 914" d="M122.394,196.033a59.915,59.915,0,0,1-8.352.29,59.788,59.788,0,0,1-8.352-.29,61.888,61.888,0,0,1,8.352-.29,62.01,62.01,0,0,1,8.352.29Z" transform="translate(-39.146 -15.585)" fill="#e0e0e0"/>
      <path id="Trazado_915" data-name="Trazado 915" d="M88.115,227.218a31.134,31.134,0,0,1-.362-6.684,31.134,31.134,0,0,1,.362-6.684,31.135,31.135,0,0,1,.362,6.684A31.135,31.135,0,0,1,88.115,227.218Z" transform="translate(-46.196 -13.516)" fill="#e0e0e0"/>
    </g>
    <g id="freepik--product-4--inject-17" transform="translate(395.564 287.697)">
      <path id="Trazado_916" data-name="Trazado 916" d="M450.9,323.481a7.662,7.662,0,0,0-.1-1c-.1-.657-.125-1.638-.223-2.919,0-.635-.083-1.359-.153-2.139s-.306-1.649-.473-2.573l-.585-3a8.067,8.067,0,0,0-.445-1.626c-.181-.557-.362-1.114-.557-1.727a52.617,52.617,0,0,0-8.491-16.321A68.371,68.371,0,0,0,420.389,274.8l-3.313-1.983c-1.169-.6-2.38-1.17-3.591-1.76l-1.838-.891a17.069,17.069,0,0,0-1.893-.836l-3.981-1.526c-.668-.256-1.392-.524-2.018-.769l-2.116-.624-4.315-1.248c-1.392-.39-2.979-.646-4.5-.969q-2.284-.535-4.635-.847a88.057,88.057,0,0,0-9.661-.891c-1.657,0-3.313-.178-5-.156l-5.053.212a17.932,17.932,0,0,0-2.561.123l-2.547.323c-1.7.223-3.424.379-5.137.668a95.988,95.988,0,0,0-10.2,2.384l-2.534.746-1.267.379-1.225.479-4.942,1.905c-1.615.7-3.16,1.515-4.761,2.228-.78.4-1.615.746-2.366,1.192l-2.2,1.348a83,83,0,0,0-8.673,5.9l-3.9,3.42-.974.858-.877.936-1.754,1.872-1.754,1.883-1.545,2.016-1.531,2.05-.766,1.014a10.658,10.658,0,0,0-.654,1.114l-2.6,4.311c-.682,1.5-1.392,3.019-2.074,4.534a49.253,49.253,0,0,0,0,38.6l2.074,4.534,2.589,4.311.654,1.114.78,1.014,1.531,2.028,1.545,2.016,1.754,1.883,1.754,1.872.877.936.974.858,3.884,3.42a84.342,84.342,0,0,0,8.672,5.9l2.255,1.348c.752.457,1.587.791,2.366,1.192,1.6.758,3.146,1.582,4.761,2.228l4.942,1.916,1.225.468c.418.145.849.256,1.267.379l2.534.746a96.04,96.04,0,0,0,10.2,2.4c1.712.278,3.438.446,5.137.668l2.561.312c.849.089,1.7.089,2.547.134l5.067.212c1.67,0,3.327-.111,4.983-.156a91.075,91.075,0,0,0,9.744-.9l1.169-.145c.39-.056.78-.156,1.155-.223l2.3-.468c1.517-.334,3.049-.579,4.51-.969l4.3-1.259,2.116-.624,2.032-.757,3.967-1.526a17.128,17.128,0,0,0,1.893-.847l1.838-.891c1.211-.59,2.436-1.114,3.591-1.76l3.313-1.972a68.368,68.368,0,0,0,19.488-17.39,52.622,52.622,0,0,0,8.491-16.321l.557-1.716a8.341,8.341,0,0,0,.445-1.638l.585-3c.167-.925.376-1.783.487-2.562s.1-1.5.139-2.15c.1-1.27.181-2.228.223-2.919a9.278,9.278,0,0,1,.1-.992v.992c0,.657-.083,1.649-.153,2.93,0,.635-.07,1.359-.125,2.15a26.111,26.111,0,0,1-.445,2.573c-.167.925-.348,1.938-.557,3.008a8.145,8.145,0,0,1-.418,1.649c-.181.557-.362,1.114-.543,1.727a52.458,52.458,0,0,1-8.422,16.432,68.317,68.317,0,0,1-19.489,17.546l-3.327,1.994c-1.155.613-2.394,1.181-3.605,1.782l-1.851.9a14.6,14.6,0,0,1-1.907.847l-4,1.549-2.032.78-2.13.624-4.343,1.281c-1.462.39-3.007.646-4.538.98l-2.3.479c-.39.067-.78.167-1.169.223l-1.2.145a86.284,86.284,0,0,1-9.744.925c-1.657,0-3.327.178-5.025.167l-5.095-.2c-.863-.056-1.726,0-2.575-.134l-2.575-.312c-1.712-.223-3.466-.39-5.192-.668a97.614,97.614,0,0,1-10.287-2.406l-2.561-.746-1.281-.379-1.239-.479-5.109-1.972c-1.629-.713-3.2-1.526-4.816-2.295-.78-.4-1.629-.746-2.38-1.2l-2.269-1.359a84.541,84.541,0,0,1-8.756-5.949l-3.926-3.454-.988-.869-.891-.936-1.768-1.894-1.782-1.905L308.665,356l-1.559-2.039-.78-1.025-.654-1.114-2.631-4.356-2.088-4.579a49.672,49.672,0,0,1,0-38.991c.71-1.526,1.392-3.053,2.1-4.568s1.754-2.908,2.617-4.356c.223-.356.432-.724.668-1.114l.766-1.025,1.559-2.039,1.559-2.039,1.768-1.894,1.768-1.894.891-.936.988-.869,3.926-3.454a86.092,86.092,0,0,1,8.756-5.949l2.269-1.359c.752-.446,1.6-.791,2.394-1.2,1.6-.758,3.174-1.582,4.8-2.228l4.983-1.916,1.239-.479c.418-.145.849-.256,1.281-.39l2.561-.746a97.545,97.545,0,0,1,10.287-2.4c1.726-.29,3.466-.446,5.192-.668l2.575-.312c.849-.089,1.712-.089,2.575-.134l5.095-.2c1.684,0,3.369.111,5.025.156a89.205,89.205,0,0,1,9.744.925,45.178,45.178,0,0,1,4.663.858c1.531.334,3.062.59,4.538.98l4.329,1.27,2.144.624,2.032.78,4,1.549a17.347,17.347,0,0,1,1.907.847l1.838.9c1.225.6,2.45,1.17,3.619,1.783l3.327,1.994a68.441,68.441,0,0,1,19.489,17.546,52.576,52.576,0,0,1,8.422,16.432c.181.6.362,1.114.543,1.738a8.043,8.043,0,0,1,.418,1.638l.557,3.008c.167.936.362,1.782.445,2.573s.083,1.515.125,2.161c.07,1.27.111,2.228.153,2.919A8.894,8.894,0,0,1,450.9,323.481Z" transform="translate(-296.967 -261.73)" fill="#263238"/>
      <path id="Trazado_917" data-name="Trazado 917" d="M352.5,280.249a58.529,58.529,0,0,1-.362-9.124,58.643,58.643,0,0,1,.362-9.135,56.635,56.635,0,0,1,.362,9.135,56.563,56.563,0,0,1-.362,9.124Z" transform="translate(-275.353 -261.7)" fill="#263238"/>
      <path id="Trazado_918" data-name="Trazado 918" d="M330.707,317.19c0,.156-7.392.29-16.5.29s-16.482-.134-16.482-.29,7.378-.29,16.482-.29S330.707,317.011,330.707,317.19Z" transform="translate(-296.667 -255.438)" fill="#263238"/>
      <path id="Trazado_919" data-name="Trazado 919" d="M416.07,317.19c0,.156-6.96.29-15.549.29S385,317.346,385,317.19s6.96-.29,15.535-.29S416.07,317.011,416.07,317.19Z" transform="translate(-262.454 -255.438)" fill="#263238"/>
      <path id="Trazado_920" data-name="Trazado 920" d="M352.5,374.351a69.225,69.225,0,0,1-.362-9.926,68.981,68.981,0,0,1,.362-9.915,66.647,66.647,0,0,1,.362,9.915,66.855,66.855,0,0,1-.362,9.926Z" transform="translate(-275.353 -251.149)" fill="#263238"/>
      <path id="Trazado_921" data-name="Trazado 921" d="M349.215,287.022l-4.176,6.161a3.9,3.9,0,0,0,.613,5.069l4.608,4.534,10.218-.1,4.775-4.378a3.9,3.9,0,0,0,.7-5.247l-4.176-6.138a3.334,3.334,0,0,0-2.784-1.292l-7.086.067a3.277,3.277,0,0,0-2.687,1.326Z" transform="translate(-278.384 -259.004)" fill="#455a64"/>
      <path id="Trazado_922" data-name="Trazado 922" d="M357.078,354.135,342.81,340.8l8.13-39.76,10.218-.1,8.324,39.37Z" transform="translate(-278.994 -257.259)" fill="#455a64"/>
      <path id="Trazado_923" data-name="Trazado 923" d="M358.68,301.127a20.459,20.459,0,0,1-4.928.368,21.637,21.637,0,0,1-4.942-.212,20.734,20.734,0,0,1,4.928-.368A21.462,21.462,0,0,1,358.68,301.127Z" transform="translate(-276.642 -257.268)" fill="#263238"/>
      <path id="Trazado_924" data-name="Trazado 924" d="M360.953,288.38a9.655,9.655,0,0,1-1.475,2.228c-1,1.326-2.436,3.13-4.176,5.08s-3.257,3.676-4.441,4.891a11.4,11.4,0,0,1-2.06,1.894,11.184,11.184,0,0,1,1.643-2.128l4.26-4.98,4.274-4.98A11.661,11.661,0,0,1,360.953,288.38Z" transform="translate(-276.646 -258.691)" fill="#263238"/>
      <path id="Trazado_925" data-name="Trazado 925" d="M364.638,318.73a106.671,106.671,0,0,1-9.939,5.57,105.951,105.951,0,0,1-10.329,5.136,106.392,106.392,0,0,1,9.939-5.626,106.258,106.258,0,0,1,10.329-5.08Z" transform="translate(-278.383 -255.23)" fill="#fafafa"/>
      <path id="Trazado_926" data-name="Trazado 926" d="M361.34,308.75q-3.666,2.438-7.628,4.568c-4.26,2.473-7.656,4.534-7.781,4.456a77.251,77.251,0,0,1,15.41-9.024Z" transform="translate(-277.771 -256.368)" fill="#fafafa"/>
      <path id="Trazado_927" data-name="Trazado 927" d="M358.7,301a28.2,28.2,0,0,1-5.248,2.841,31.058,31.058,0,0,1-5.568,2.339,28.2,28.2,0,0,1,5.248-2.841A31.524,31.524,0,0,1,358.7,301Z" transform="translate(-277.007 -257.252)" fill="#fafafa"/>
      <path id="Trazado_928" data-name="Trazado 928" d="M355.053,296.043a47.121,47.121,0,0,1-4.4-2.863,50.012,50.012,0,0,1-4.455-2.83A21.482,21.482,0,0,1,355.053,296.043Z" transform="translate(-277.665 -258.466)" fill="#fafafa"/>
      <path id="Trazado_929" data-name="Trazado 929" d="M358.05,290.118a14.813,14.813,0,0,1-3.7-1.961,12.781,12.781,0,0,1-3.258-2.417,14.814,14.814,0,0,1,3.7,1.961A12.779,12.779,0,0,1,358.05,290.118Z" transform="translate(-275.748 -258.992)" fill="#fafafa"/>
      <path id="Trazado_930" data-name="Trazado 930" d="M361.447,297.4a13.892,13.892,0,0,1-3.772-1.693,13.073,13.073,0,0,1-3.355-2.172,14.191,14.191,0,0,1,3.731,1.638A12.936,12.936,0,0,1,361.447,297.4Z" transform="translate(-274.482 -258.104)" fill="#fafafa"/>
      <path id="Trazado_931" data-name="Trazado 931" d="M366.432,329.76a109.5,109.5,0,0,1-9.925,6.127,114.772,114.772,0,0,1-10.357,5.659,107.187,107.187,0,0,1,9.925-6.127,113.787,113.787,0,0,1,10.357-5.659Z" transform="translate(-277.685 -253.972)" fill="#fafafa"/>
    </g>
    <g id="freepik--product-3--inject-17" transform="translate(134.798 76.554)">
      <path id="Trazado_932" data-name="Trazado 932" d="M248.092,127.757a6.209,6.209,0,0,0-.1-.9c-.1-.59-.111-1.482-.209-2.618,0-.579-.083-1.225-.139-1.938s-.278-1.471-.432-2.306-.334-1.727-.529-2.685a25.066,25.066,0,0,0-.891-3.019,47.55,47.55,0,0,0-7.587-14.672,61.461,61.461,0,0,0-17.484-15.6l-2.979-1.771c-1.044-.546-2.144-1.114-3.23-1.593s-2.172-1.114-3.355-1.549l-3.577-1.393-1.81-.691-1.907-.557L200,75.353c-1.309-.345-2.687-.579-4.051-.869a42.185,42.185,0,0,0-4.176-.758,78.481,78.481,0,0,0-8.686-.8c-1.476,0-2.979-.156-4.482-.145l-4.538.189a14.348,14.348,0,0,0-2.3.123l-2.3.279c-1.531.2-3.09.345-4.622.6a84.626,84.626,0,0,0-9.16,2.15l-2.283.668-1.141.345-1.1.423-4.441,1.716c-1.392.624-2.784,1.359-4.274,2.039a21.79,21.79,0,0,0-2.13,1.114L138.3,83.641a73.994,73.994,0,0,0-7.8,5.292l-3.494,3.075-.877.78-.78.836-1.573,1.682L122.2,97,120.8,98.8l-1.392,1.827-.7.914c-.209.312-.39.635-.585.958q-1.169,1.927-2.339,3.877c-.612,1.348-1.239,2.707-1.865,4.066a44.322,44.322,0,0,0,0,34.691c.626,1.359,1.239,2.718,1.865,4.066s1.559,2.6,2.325,3.888l.585.958.7.914,1.392,1.816,1.392,1.816,1.573,1.693,1.573,1.682.793.836.877.769,3.466,3.1a75.745,75.745,0,0,0,7.8,5.292l2.018,1.214c.668.412,1.392.713,2.13,1.114,1.392.68,2.784,1.415,4.274,2.039l4.441,1.716,1.1.423,1.142.345,2.283.668a84.641,84.641,0,0,0,9.16,2.15c1.545.256,3.09.4,4.622.6l2.3.278c.766.078,1.531.078,2.3.123l4.538.189c1.517,0,3.007-.1,4.482-.145a78.748,78.748,0,0,0,8.7-.8,42.189,42.189,0,0,0,4.176-.758c1.392-.29,2.784-.524,4.037-.869l3.87-1.114,1.907-.557,1.851-.769,3.564-1.37c1.2-.434,2.241-1.047,3.355-1.548s2.186-1.047,3.23-1.593l2.979-1.771a61.336,61.336,0,0,0,17.484-15.6,47.452,47.452,0,0,0,7.642-14.661c.167-.535.334-1.047.5-1.549a7.4,7.4,0,0,0,.39-1.471c.195-.958.362-1.849.529-2.685s.348-1.6.432-2.306.1-1.359.139-1.938c.1-1.114.167-2.016.209-2.618a8.389,8.389,0,0,1,.1-.891v.891c0,.59-.07,1.482-.125,2.629,0,.579-.07,1.225-.111,1.938s-.251,1.482-.39,2.317l-.5,2.707a8.656,8.656,0,0,1-.376,1.471c-.167.5-.334,1.025-.5,1.56a47.045,47.045,0,0,1-7.559,14.772,61.227,61.227,0,0,1-17.526,15.786l-2.979,1.794c-1.058.557-2.158,1.114-3.257,1.615s-2.172,1.114-3.369,1.571l-3.605,1.393-1.824.691-1.921.568-3.9,1.114c-1.322.357-2.714.579-4.079.88q-2.057.484-4.176.769a79.971,79.971,0,0,1-8.77.836c-1.489,0-3.007.156-4.524.145l-4.594-.178a14.607,14.607,0,0,1-2.311-.123l-2.311-.278c-1.545-.2-3.118-.345-4.677-.6a87.171,87.171,0,0,1-9.257-2.161l-2.3-.668-1.295-.323-1.114-.434-4.455-1.794c-1.462-.635-2.868-1.37-4.329-2.061-.71-.357-1.392-.668-2.144-1.114l-2.046-1.225a75.588,75.588,0,0,1-7.879-5.347l-3.522-3.108-.891-.78-.807-.847-1.587-1.693-1.573-1.649-1.392-1.827-1.392-1.838-.71-.925-.585-.969-2.366-3.91-1.879-4.122a48.775,48.775,0,0,1-3.591-17.524,48.774,48.774,0,0,1,3.591-17.524c.626-1.381,1.267-2.752,1.893-4.111a43.607,43.607,0,0,1,2.353-3.921c.195-.323.39-.646.6-.969l.7-.925,1.392-1.838,1.392-1.827,1.6-1.7,1.587-1.7.793-.836.891-.791c1.183-1.036,2.353-2.072,3.536-3.1a73.562,73.562,0,0,1,7.879-5.392l2.046-1.225c.682-.412,1.392-.724,2.144-1.114,1.462-.691,2.868-1.426,4.329-2.061l4.482-1.727,1.114-.434,1.155-.345,2.3-.668a87.166,87.166,0,0,1,9.257-2.161c1.559-.256,3.132-.4,4.677-.6l2.311-.279c.766-.078,1.545-.078,2.311-.123l4.594-.178c1.517,0,3.021.1,4.524.145a80.022,80.022,0,0,1,8.756.836q2.115.283,4.176.769c1.392.3,2.784.524,4.079.88l3.9,1.114,1.921.568,1.824.691,3.619,1.459c1.2.434,2.255,1.114,3.383,1.571s2.2,1.114,3.244,1.615l2.993,1.794A61.366,61.366,0,0,1,238.5,99.416,47.078,47.078,0,0,1,246.06,114.2a25.007,25.007,0,0,1,.877,3.03c.181.969.334,1.872.5,2.707s.32,1.6.39,2.317.084,1.359.111,1.938c0,1.114.1,2.016.125,2.629S248.092,127.757,248.092,127.757Z" transform="translate(-109.64 -72.2)" fill="#263238"/>
      <path id="Trazado_933" data-name="Trazado 933" d="M159.614,93.47a77.468,77.468,0,0,1-.362-10.505,77.349,77.349,0,0,1,.362-10.494,77.349,77.349,0,0,1,.362,10.494A77.453,77.453,0,0,1,159.614,93.47Z" transform="translate(-90.207 -72.169)" fill="#263238"/>
      <path id="Trazado_934" data-name="Trazado 934" d="M140,122.1c0,.156-6.64.29-14.825.29s-14.825-.134-14.825-.29q7.4-.451,14.825-.3,7.417-.151,14.825.3Z" transform="translate(-109.362 -66.547)" fill="#263238"/>
      <path id="Trazado_935" data-name="Trazado 935" d="M216.721,122.1q-6.946.429-13.92.29-6.965.139-13.92-.29,6.945-.449,13.92-.3Q209.766,121.655,216.721,122.1Z" transform="translate(-78.575 -66.547)" fill="#263238"/>
      <path id="Trazado_936" data-name="Trazado 936" d="M159.614,173.92a85.6,85.6,0,0,1-.362-11.04,85.6,85.6,0,0,1,.362-11.04,85.6,85.6,0,0,1,.362,11.04A85.59,85.59,0,0,1,159.614,173.92Z" transform="translate(-90.207 -63.118)" fill="#263238"/>
      <rect id="Rectángulo_224" data-name="Rectángulo 224" width="42.708" height="34.179" transform="translate(47.914 41.799)" fill="#455a64"/>
      <path id="Trazado_937" data-name="Trazado 937" d="M157.1,110c.139.123-2.784,2.484-6.417,5.47s-6.389,5.47-6.543,5.359a38.557,38.557,0,0,1,6.014-5.76A42.3,42.3,0,0,1,157.1,110Z" transform="translate(-96.115 -67.889)" fill="#fafafa"/>
      <path id="Trazado_938" data-name="Trazado 938" d="M166.636,110.21a3.855,3.855,0,0,1-.71.947c-.487.579-1.225,1.4-2.172,2.406-1.879,2.016-4.58,4.746-7.712,7.642s-6.125,5.425-8.352,7.208c-1.1.88-2.018,1.593-2.673,2.061a4.851,4.851,0,0,1-1.058.7,34.851,34.851,0,0,1,3.369-3.052c2.116-1.838,5.039-4.456,8.171-7.3s5.874-5.57,7.851-7.509a36.465,36.465,0,0,1,3.285-3.108Z" transform="translate(-96.185 -67.865)" fill="#fafafa"/>
      <path id="Trazado_939" data-name="Trazado 939" d="M177.515,110.21a8.722,8.722,0,0,1-1.114,1.359c-.766.858-1.893,2.072-3.313,3.565-2.784,2.974-6.877,7.018-11.554,11.341s-9.076,8.11-12.347,10.784c-1.643,1.348-2.979,2.417-3.926,3.13a11.034,11.034,0,0,1-1.531,1.114,11.013,11.013,0,0,1,1.322-1.248L148.811,137c3.174-2.752,7.517-6.573,12.18-10.884s8.756-8.311,11.693-11.218l3.494-3.442A9.454,9.454,0,0,1,177.515,110.21Z" transform="translate(-96.275 -67.865)" fill="#fafafa"/>
      <path id="Trazado_940" data-name="Trazado 940" d="M182.784,115.72c.153.111-6.417,6.227-14.672,13.658s-15.076,13.391-15.2,13.279,6.417-6.216,14.658-13.658S182.631,115.62,182.784,115.72Z" transform="translate(-92.677 -67.237)" fill="#fafafa"/>
      <path id="Trazado_941" data-name="Trazado 941" d="M179.375,124.64a14.668,14.668,0,0,1-1.865,2.8c-1.239,1.671-3.063,3.944-5.206,6.372s-4.176,4.556-5.791,6.049a17.459,17.459,0,0,1-2.673,2.328,18.063,18.063,0,0,1,2.269-2.573c1.392-1.56,3.452-3.721,5.568-6.138s4.023-4.646,5.373-6.261a19.362,19.362,0,0,1,2.325-2.573Z" transform="translate(-88.392 -66.22)" fill="#fafafa"/>
      <path id="Trazado_942" data-name="Trazado 942" d="M187.025,124.43c0,.156-9.744.29-21.632.29s-21.632-.134-21.632-.29,9.744-.29,21.632-.29S187.025,124.274,187.025,124.43Z" transform="translate(-96.264 -66.277)" fill="#263238"/>
      <path id="Trazado_943" data-name="Trazado 943" d="M159.642,110.26c.209,0,.362,7.62.362,17.034s-.153,17.045-.362,17.045-.362-7.631-.362-17.045S159.447,110.26,159.642,110.26Z" transform="translate(-90.179 -67.86)" fill="#263238"/>
      <path id="Trazado_944" data-name="Trazado 944" d="M162.93,110.16a5.349,5.349,0,0,1-1.392-.167,23.25,23.25,0,0,1-3.619-1.036,21.823,21.823,0,0,1-4.775-2.518,11.909,11.909,0,0,1-2.339-2.005,2.138,2.138,0,0,1-.473-1.526,1.7,1.7,0,0,1,1.155-1.381,3.435,3.435,0,0,1,2.046,0,6.961,6.961,0,0,1,1.67.657,20.259,20.259,0,0,1,2.631,1.716,17.875,17.875,0,0,1,3.522,3.6,13.934,13.934,0,0,1,1.573,2.807,2.613,2.613,0,0,1,.32,1.114,34.4,34.4,0,0,0-2.325-3.7,19.863,19.863,0,0,0-3.55-3.42,20.208,20.208,0,0,0-2.575-1.626,4.107,4.107,0,0,0-2.993-.59,1.259,1.259,0,0,0-.39,2.083,11.4,11.4,0,0,0,2.172,1.9,23.215,23.215,0,0,0,4.566,2.551q2.334.87,4.775,1.537Z" transform="translate(-93.69 -68.873)" fill="#263238"/>
      <path id="Trazado_945" data-name="Trazado 945" d="M159.422,110.724a3.647,3.647,0,0,1,.111-1.114,23.06,23.06,0,0,1,.793-3.1,29.206,29.206,0,0,1,1.865-4.456c.418-.813.9-1.66,1.392-2.518a3.375,3.375,0,0,1,1.239-1.237,1.941,1.941,0,0,1,2.158.245,3.258,3.258,0,0,1,.543,3.075,10.605,10.605,0,0,1-.9,2.707,12.929,12.929,0,0,1-3.132,4.011,14.271,14.271,0,0,1-3.049,2.028,5.362,5.362,0,0,1-1.309.512,25.529,25.529,0,0,0,4-2.863,12.886,12.886,0,0,0,2.9-3.921,10.089,10.089,0,0,0,.821-2.6,6,6,0,0,0,.125-1.393,1.946,1.946,0,0,0-.5-1.225,1.066,1.066,0,0,0-1.225-.134,2.833,2.833,0,0,0-1,1.014c-.543.835-1.044,1.66-1.476,2.462a38.3,38.3,0,0,0-1.991,4.345C159.868,109.131,159.548,110.735,159.422,110.724Z" transform="translate(-90.238 -69.248)" fill="#263238"/>
    </g>
    <g id="freepik--product-2--inject-17" transform="translate(314.072 47.801)">
      <path id="Trazado_946" data-name="Trazado 946" d="M493.968,148.759a2.036,2.036,0,0,1,0-.423l-.07-1.237c-.1-1.114,0-2.718-.306-4.835a85.7,85.7,0,0,0-3.8-18.326,88.129,88.129,0,0,0-5.248-12.767,92.385,92.385,0,0,0-8.881-14.315,115.008,115.008,0,0,0-32.3-28.831,143.916,143.916,0,0,0-53.426-18.939,160.793,160.793,0,0,0-49.682.479,165.163,165.163,0,0,0-16.941,3.877c-23.557,6.885-44.044,19.191-58.883,35.371a100.188,100.188,0,0,0-10.329,13.3c-1.559,2.328-2.882,4.746-4.246,7.174a59.974,59.974,0,0,0-3.494,7.486,83.36,83.36,0,0,0-4.83,15.686,81.172,81.172,0,0,0,0,32.63,83.065,83.065,0,0,0,4.816,15.663c1.016,2.562,2.269,5.024,3.494,7.5a62.245,62.245,0,0,0,4.26,7.174,99.611,99.611,0,0,0,10.315,13.368c14.842,16.182,35.334,28.489,58.9,35.371a159.028,159.028,0,0,0,16.955,3.877,160.653,160.653,0,0,0,49.668.479,143.918,143.918,0,0,0,53.427-18.939,114.982,114.982,0,0,0,32.3-28.831,92.946,92.946,0,0,0,8.881-14.315,88.069,88.069,0,0,0,5.248-12.823,85.524,85.524,0,0,0,3.689-18.359c.251-2.128.209-3.754.306-4.846l.069-1.237a1.784,1.784,0,0,1,0-.412,2.246,2.246,0,0,1,0,.412v1.237c0,1.114,0,2.729-.167,4.857a81.447,81.447,0,0,1-3.438,18.46,87.17,87.17,0,0,1-5.15,12.867,91.458,91.458,0,0,1-8.826,14.427,115.013,115.013,0,0,1-32.365,29.166,144.767,144.767,0,0,1-53.83,19.217A159.974,159.974,0,0,1,340,249.034a164.852,164.852,0,0,1-17.122-3.888c-23.837-6.932-44.574-19.361-59.593-35.716a100.686,100.686,0,0,1-10.454-13.458c-1.573-2.351-2.923-4.8-4.3-7.252a60.649,60.649,0,0,1-3.536-7.575A83.979,83.979,0,0,1,240.1,165.28a82.03,82.03,0,0,1,0-33.009,83.823,83.823,0,0,1,4.872-15.853c1.03-2.585,2.311-5.08,3.55-7.575a63.566,63.566,0,0,1,4.3-7.252A99.458,99.458,0,0,1,263.28,88.144c15.011-16.354,35.745-28.78,59.579-35.7a164.906,164.906,0,0,1,17.122-3.9,162.48,162.48,0,0,1,50.113-.4,144.809,144.809,0,0,1,53.816,19.217A115.091,115.091,0,0,1,476.29,96.522,92.418,92.418,0,0,1,485.115,111a87.175,87.175,0,0,1,5.15,12.867,81.44,81.44,0,0,1,3.438,18.46c.209,2.139.111,3.765.167,4.857v1.237A2.6,2.6,0,0,1,493.968,148.759Z" transform="translate(-238.425 -46.391)" fill="#263238"/>
      <path id="Trazado_947" data-name="Trazado 947" d="M330.668,85.516c-.4,0-.738-8.678-.738-19.373s.334-19.373.738-19.373.724,8.678.724,19.373S331.058,85.516,330.668,85.516Z" transform="translate(-202.551 -46.347)" fill="#263238"/>
      <path id="Trazado_948" data-name="Trazado 948" d="M294.487,138.339c0,.312-12.25.579-27.354.579s-27.354-.267-27.354-.579,12.25-.579,27.354-.579S294.487,138.027,294.487,138.339Z" transform="translate(-237.894 -35.971)" fill="#263238"/>
      <path id="Trazado_949" data-name="Trazado 949" d="M436.091,138.339c0,.312-11.54.579-25.781.579s-25.781-.267-25.781-.579,11.54-.579,25.781-.579S436.091,138.027,436.091,138.339Z" transform="translate(-181.146 -35.971)" fill="#263238"/>
      <path id="Trazado_950" data-name="Trazado 950" d="M330.668,233.95c-.4,0-.738-9.124-.738-20.365s.334-20.376.738-20.376.724,9.124.724,20.376S331.058,233.95,330.668,233.95Z" transform="translate(-202.551 -29.647)" fill="#263238"/>
      <path id="Trazado_951" data-name="Trazado 951" d="M302.53,97.13c5.191-4.818,13.1-7.176,20.964-6.25v11.508c7.039.259,13.5,3.2,17.373,7.91,0,0,9.647-8.634,16.468-8.11V90.59s11.679-.479,18.862,9.592l-11.972,7.954-7.141,17.981s11.025,15.6,12.222,43.849l-.292,26.358h-57.8l-.237-18.482a78.151,78.151,0,0,1,.835-12.355c1.684-11.319,5.888-33.243,13.781-39.381L317.1,108.794Z" transform="translate(-213.293 -41.35)" fill="#c60f7b"/>
      <path id="Trazado_952" data-name="Trazado 952" d="M350.592,122.5c0,.156-7.058.323-15.744.379s-15.758,0-15.758-.2,7.044-.334,15.744-.379S350.592,122.335,350.592,122.5Z" transform="translate(-206.801 -37.735)" fill="#263238"/>
      <path id="Trazado_953" data-name="Trazado 953" d="M331.609,112.929a5.129,5.129,0,0,1-2.158.969,12.314,12.314,0,0,1-5.972.078,10.194,10.194,0,0,1-4.928-2.7,3.486,3.486,0,0,1-1.141-1.76c.1,0,.529.624,1.531,1.493a11.409,11.409,0,0,0,4.747,2.417,13.256,13.256,0,0,0,5.568.067C330.76,113.219,331.553,112.851,331.609,112.929Z" transform="translate(-207.46 -39.191)" fill="#263238"/>
      <path id="Trazado_954" data-name="Trazado 954" d="M347.757,108.53a2.862,2.862,0,0,1-.71,2.106,8.738,8.738,0,0,1-5.206,3.164,15.026,15.026,0,0,1-6.556-.134,7.143,7.143,0,0,1-2.464-.88,22.856,22.856,0,0,1,2.589.479,16.686,16.686,0,0,0,6.236,0,9.134,9.134,0,0,0,4.97-2.83A14.488,14.488,0,0,0,347.757,108.53Z" transform="translate(-201.419 -39.304)" fill="#263238"/>
      <path id="Trazado_955" data-name="Trazado 955" d="M363.555,141.911c0,.056-.752.278-2.032.88a32.181,32.181,0,0,0-4.942,3.064,33.107,33.107,0,0,1-7.559,4.456,16.014,16.014,0,0,1-5.485.969,26.5,26.5,0,0,1-5.944-.7c-3.967-.891-7.447-2.295-10.774-3.142a23,23,0,0,0-9.048-.8,12.785,12.785,0,0,0-5.568,1.994,19.487,19.487,0,0,0-1.573,1.337,2.6,2.6,0,0,1,.278-.434,6.252,6.252,0,0,1,1.1-1.114,12.414,12.414,0,0,1,5.68-2.228,23.048,23.048,0,0,1,9.354.7c3.4.836,6.891,2.228,10.76,3.086s7.823,1,10.955-.2a34.59,34.59,0,0,0,7.5-4.3,29.191,29.191,0,0,1,5.137-2.952,13.284,13.284,0,0,1,1.587-.546A1.832,1.832,0,0,1,363.555,141.911Z" transform="translate(-210.118 -35.498)" fill="#fafafa"/>
      <path id="Trazado_956" data-name="Trazado 956" d="M354.106,128.024a12.32,12.32,0,0,1-1.629,0,10.987,10.987,0,0,0-4.009,1.359c-1.587.8-3.3,2.016-5.568,2.974a25.462,25.462,0,0,1-7.893,1.905,25.877,25.877,0,0,1-8.213-.613,24.273,24.273,0,0,1-6.055-2.284,18.5,18.5,0,0,1-3.4-2.4,4.733,4.733,0,0,1-1-1.114,35.941,35.941,0,0,0,4.691,3.119,25.382,25.382,0,0,0,5.958,2.172,26.362,26.362,0,0,0,15.6-1.248c2.2-.891,3.939-2.072,5.568-2.852a10.92,10.92,0,0,1,4.273-1.248,5.4,5.4,0,0,1,1.239.078A1.317,1.317,0,0,0,354.106,128.024Z" transform="translate(-207.879 -37.107)" fill="#fafafa"/>
      <path id="Trazado_957" data-name="Trazado 957" d="M352.794,117.456s0,.1-.237.234a2.772,2.772,0,0,1-.947.457,6.851,6.851,0,0,1-4-.256,21.679,21.679,0,0,0-5.415-1.537,22.4,22.4,0,0,0-6.96.6c-2.45.524-4.719,1.214-6.96,1.627a24.147,24.147,0,0,1-5.888.512,11.713,11.713,0,0,1-3.87-.813,4.747,4.747,0,0,1-.933-.457c-.195-.111-.292-.189-.279-.2a15.069,15.069,0,0,0,5.109,1.058,25.8,25.8,0,0,0,5.707-.613c2.116-.434,4.371-1.114,6.863-1.671a22.271,22.271,0,0,1,7.239-.579,20.4,20.4,0,0,1,5.568,1.693,6.694,6.694,0,0,0,3.717.412,6.774,6.774,0,0,0,1.281-.468Z" transform="translate(-207.499 -38.482)" fill="#fafafa"/>
      <path id="Trazado_958" data-name="Trazado 958" d="M360.891,106.121a7.738,7.738,0,0,0-1.684-.858,11.675,11.675,0,0,0-5.262-.668,22.318,22.318,0,0,0-7.475,2.228,41.183,41.183,0,0,1-9.048,3.543,14.187,14.187,0,0,1-5.3.123,24.762,24.762,0,0,1-4.58-1.393,25.5,25.5,0,0,0-7.517-2.228,9.478,9.478,0,0,0-5.178.824,8.846,8.846,0,0,0-1.392,1.114s0-.145.237-.379a4.33,4.33,0,0,1,1.044-.9,9.315,9.315,0,0,1,5.373-1.036,14.945,14.945,0,0,1,3.772.713c1.295.4,2.6.936,4,1.471a24.912,24.912,0,0,0,4.441,1.315,13.355,13.355,0,0,0,4.97-.123,43.347,43.347,0,0,0,8.909-3.442,21.916,21.916,0,0,1,7.754-2.228,11.342,11.342,0,0,1,5.443.869,6.022,6.022,0,0,1,1.211.735C360.793,106,360.9,106.11,360.891,106.121Z" transform="translate(-209.012 -39.803)" fill="#fafafa"/>
      <path id="Trazado_959" data-name="Trazado 959" d="M357.328,96.138c0,.178-3.4-.668-7.656-.758s-7.656.568-7.712.39a26.172,26.172,0,0,1,15.368.368Z" transform="translate(-197.835 -40.871)" fill="#fafafa"/>
      <path id="Trazado_960" data-name="Trazado 960" d="M303.74,98.3a.963.963,0,0,1,.32-.59,3.523,3.523,0,0,1,1.907-.847,13.883,13.883,0,0,1,3.16.078q1.866.158,3.745.156a69.22,69.22,0,0,0,9.591-1.025,9.377,9.377,0,0,1-2.687.836,31.8,31.8,0,0,1-6.891.769,37.215,37.215,0,0,1-3.842-.2,15.152,15.152,0,0,0-3.007-.212,3.8,3.8,0,0,0-1.782.6C303.907,98.109,303.782,98.309,303.74,98.3Z" transform="translate(-212.819 -40.725)" fill="#fafafa"/>
      <path id="Trazado_961" data-name="Trazado 961" d="M366.6,161.622a23.458,23.458,0,0,0-2.408-.524,14.226,14.226,0,0,0-6.57.98,23.041,23.041,0,0,0-4,1.95c-1.392.813-2.784,1.771-4.176,2.752a29.218,29.218,0,0,1-5.039,2.729,16.175,16.175,0,0,1-6.417,1.114c-4.594-.134-8.533-1.727-11.958-3.086l-9.048-3.777-6.083-2.6-1.629-.735c-.376-.178-.557-.267-.543-.29a2.326,2.326,0,0,1,.612.189l1.7.635,6.181,2.429,9.118,3.665c3.41,1.337,7.308,2.863,11.665,2.986a15.291,15.291,0,0,0,6.083-1.114,28.317,28.317,0,0,0,4.942-2.64c1.5-.947,2.9-1.905,4.287-2.718a23.731,23.731,0,0,1,4.176-1.938,14.132,14.132,0,0,1,6.821-.824,8.484,8.484,0,0,1,1.8.479,2.253,2.253,0,0,1,.487.334Z" transform="translate(-210.863 -33.419)" fill="#fafafa"/>
      <path id="Trazado_962" data-name="Trazado 962" d="M366.789,177.034q-1.192-.117-2.394-.134a17.826,17.826,0,0,0-6.208,1.415c-2.478.969-5.081,2.629-8.352,4.066a19.872,19.872,0,0,1-5.568,1.571,23.46,23.46,0,0,1-6.292-.178,95.324,95.324,0,0,1-11.429-2.975,30.391,30.391,0,0,0-9.438-1.4,16.313,16.313,0,0,0-6.222,1.326,14.747,14.747,0,0,0-1.963,1.114c-.042,0,.111-.145.4-.379a9.178,9.178,0,0,1,1.392-.9,15.52,15.52,0,0,1,6.334-1.548,30.454,30.454,0,0,1,9.744,1.3,102.241,102.241,0,0,0,11.345,2.919,22.539,22.539,0,0,0,6.041.178,18.884,18.884,0,0,0,5.318-1.471c3.2-1.381,5.861-3.03,8.436-3.966a17.065,17.065,0,0,1,6.431-1.27,9.894,9.894,0,0,1,1.8.189A2.28,2.28,0,0,1,366.789,177.034Z" transform="translate(-210.79 -31.53)" fill="#fafafa"/>
    </g>
    <g id="freepik--product-1--inject-17" transform="translate(125.708 214.05)">
      <path id="Trazado_963" data-name="Trazado 963" d="M341,290.959a1.421,1.421,0,0,1,0-.39,7.17,7.17,0,0,0-.07-1.114c-.1-1.014,0-2.529-.292-4.512a78.622,78.622,0,0,0-3.452-17.089,80.27,80.27,0,0,0-4.886-11.887,84.909,84.909,0,0,0-8.269-13.313,107.112,107.112,0,0,0-30.054-26.837,134.3,134.3,0,0,0-49.724-17.6,148.915,148.915,0,0,0-46.216.457,151.249,151.249,0,0,0-15.772,3.6c-21.92,6.409-40.983,17.862-54.791,32.92a93.055,93.055,0,0,0-9.605,12.377c-1.392,2.161-2.687,4.456-3.953,6.684a56.125,56.125,0,0,0-3.257,6.963,78.393,78.393,0,0,0-4.482,14.594,75.382,75.382,0,0,0,0,30.369,76.351,76.351,0,0,0,4.482,14.594c.933,2.373,2.116,4.668,3.243,6.974a58.559,58.559,0,0,0,3.953,6.684,93.168,93.168,0,0,0,9.619,12.377c13.8,15.067,32.864,26.526,54.791,32.931a151.24,151.24,0,0,0,15.772,3.6,149.071,149.071,0,0,0,46.23.457,133.852,133.852,0,0,0,49.71-17.613,107.191,107.191,0,0,0,30.068-26.837,85.819,85.819,0,0,0,8.255-13.313,80.473,80.473,0,0,0,4.816-11.9,78.826,78.826,0,0,0,3.452-17.1c.237-1.972.195-3.487.292-4.456a4.69,4.69,0,0,1,.07-1.114,1.426,1.426,0,0,1,0-.39,1.211,1.211,0,0,1,0,.39v1.114c0,1.014,0,2.54-.139,4.523a75.963,75.963,0,0,1-3.188,17.178,86.5,86.5,0,0,1-13,25.422,107.373,107.373,0,0,1-30.138,27.16,134.942,134.942,0,0,1-50.113,17.9,147.129,147.129,0,0,1-62.67-4c-22.2-6.452-41.513-18.024-55.5-33.254a93.593,93.593,0,0,1-9.744-12.533c-1.476-2.228-2.784-4.456-4.009-6.751a68.515,68.515,0,0,1-3.285-7.052,77.979,77.979,0,0,1-4.468-14.839,82.289,82.289,0,0,1-1.559-15.363,83.6,83.6,0,0,1,1.559-15.374,77.918,77.918,0,0,1,4.552-14.761c.947-2.406,2.144-4.735,3.3-7.063a59.872,59.872,0,0,1,4.009-6.751,93.491,93.491,0,0,1,9.744-12.522c13.982-15.228,33.291-26.8,55.487-33.243a146.965,146.965,0,0,1,62.656-4,134.7,134.7,0,0,1,50.113,17.9,106.965,106.965,0,0,1,30.138,27.149,84.657,84.657,0,0,1,8.213,13.446,76.624,76.624,0,0,1,7.99,29.166c.181,1.983.1,3.5.139,4.523v1.114a1.207,1.207,0,0,1-.014.4Z" transform="translate(-103.11 -195.622)" fill="#263238"/>
      <path id="Trazado_964" data-name="Trazado 964" d="M189.014,232.081c-.4,0-.724-8.066-.724-18.025s.32-18.036.724-18.036.724,8.077.724,18.036S189.4,232.081,189.014,232.081Z" transform="translate(-69.716 -195.576)" fill="#263238"/>
      <path id="Trazado_965" data-name="Trazado 965" d="M155.341,281.259c0,.323-11.4.579-25.46.579s-25.46-.256-25.46-.579,11.4-.579,25.46-.579S155.341,280.936,155.341,281.259Z" transform="translate(-102.596 -185.922)" fill="#263238"/>
      <path id="Trazado_966" data-name="Trazado 966" d="M287.138,281.259c0,.323-10.747.579-24,.579s-24-.256-24-.579,10.747-.579,24-.579S287.138,280.936,287.138,281.259Z" transform="translate(-49.781 -185.922)" fill="#263238"/>
      <path id="Trazado_967" data-name="Trazado 967" d="M189.014,370.247c-.4,0-.724-8.489-.724-18.939s.32-18.939.724-18.939.724,8.489.724,18.939S189.4,370.247,189.014,370.247Z" transform="translate(-69.716 -180.027)" fill="#263238"/>
      <path id="Trazado_968" data-name="Trazado 968" d="M138.34,252.334l54.095-12.444s-1.865,12.444,16.162,12.444,18.639-12.444,18.639-12.444l51.6,12.444V277.2H250.246l-.626,54.733H168.812v-55.7H142.7Z" transform="translate(-89.298 -190.574)" fill="#c60f7b"/>
      <path id="Trazado_969" data-name="Trazado 969" d="M241.181,289.441s-.209.067-.654.167a12.672,12.672,0,0,1-2,.267,15.279,15.279,0,0,1-7.475-1.515,17.386,17.386,0,0,1-7.823-7.5,16.482,16.482,0,0,1-1.865-5.982,13.579,13.579,0,0,1,.919-6.885,6.7,6.7,0,0,1,2.714-3.086,5.608,5.608,0,0,1,4.872-.234,7.14,7.14,0,0,1,3.341,3.119,9.114,9.114,0,0,1,1.114,4.144c.112,6.307-4.4,12.084-11.526,14.772a21.063,21.063,0,0,1-5.972,1.181,22.475,22.475,0,0,1-6.222-.646,21.054,21.054,0,0,1-10.44-5.915,11.54,11.54,0,0,1-3.313-10.194,7.211,7.211,0,0,1,3.438-4.757,8.291,8.291,0,0,1,6.835-.813,6.268,6.268,0,0,1,2.784,1.883,7.162,7.162,0,0,1,1.295,2.64,10.083,10.083,0,0,1-.251,5.492,19.254,19.254,0,0,1-6.389,9.313c-6.049,5.05-15.319,6.662-23.442,4.077a17.937,17.937,0,0,1-8.979-6.06,12.877,12.877,0,0,1-2.784-8.522,10.516,10.516,0,0,1,1.1-4.144,7.245,7.245,0,0,1,3.174-3.231,7.657,7.657,0,0,1,4.872-.535,9.081,9.081,0,0,1,4.051,1.938,6.585,6.585,0,0,1,2.074,6.606,11.836,11.836,0,0,1-3.174,5.626,21.02,21.02,0,0,1-10.064,5.57,24.345,24.345,0,0,1-7.726.646,16.5,16.5,0,0,1-1.991-.267l-.668-.134q.344.023.682.078a17.043,17.043,0,0,0,1.991.2A24.356,24.356,0,0,0,171.3,286a20.685,20.685,0,0,0,9.828-5.5,11.605,11.605,0,0,0,3.049-5.481,6.313,6.313,0,0,0-2-6.272,8.528,8.528,0,0,0-3.8-1.8,7.026,7.026,0,0,0-4.455.5,6.712,6.712,0,0,0-2.923,3.019,10.049,10.049,0,0,0-1.044,4,12.379,12.379,0,0,0,2.784,8.233,17.2,17.2,0,0,0,8.575,5.827c7.871,2.466,16.823.892,22.676-3.988a18.751,18.751,0,0,0,6.208-9.046,9.758,9.758,0,0,0,.237-5.247,5.663,5.663,0,0,0-3.605-4.1,7.434,7.434,0,0,0-6.111.735,6.685,6.685,0,0,0-3.16,4.4,11.094,11.094,0,0,0,3.188,9.759,20.325,20.325,0,0,0,10.051,5.726,22.358,22.358,0,0,0,6,.624,20.193,20.193,0,0,0,5.721-1.114c6.9-2.591,11.275-8.162,11.206-14.26a8.6,8.6,0,0,0-1.044-3.977,6.636,6.636,0,0,0-3.076-2.908,4.933,4.933,0,0,0-4.3.189,6.391,6.391,0,0,0-2.547,2.874,13.407,13.407,0,0,0-.933,6.684,16.351,16.351,0,0,0,1.782,5.893,17.081,17.081,0,0,0,7.6,7.431,15.186,15.186,0,0,0,7.322,1.582A21.415,21.415,0,0,0,241.181,289.441Z" transform="translate(-80.415 -187.798)" fill="#fafafa"/>
    </g>
    <g id="freepik--Character--inject-17" transform="translate(45.468 332.812)">
      <path id="Trazado_970" data-name="Trazado 970" d="M103.347,369.947s23.01.5,24.862-8.912,2.951-20.955,2.951-20.955h5.025s-1.5,20.053-3.285,24.509-11.512,8.366-16.036,8.823-16.844,0-16.844,0Z" transform="translate(-24.082 -297.91)" fill="#455a64"/>
      <path id="Trazado_971" data-name="Trazado 971" d="M122.36,339.863l55.682-25.623c5.844.265,10.926,3.294,12.918,7.7a12.451,12.451,0,0,1,1.392,5.971c-.259,4.087-3.66,7.617-8.533,8.857l-56.308,15.028Z" transform="translate(-15.323 -300.857)" fill="#455a64"/>
      <path id="Trazado_972" data-name="Trazado 972" d="M114.19,332.944l51.672-25.266a11.22,11.22,0,0,1,9.494,0,11.016,11.016,0,0,1,6.083,7.8c2.436,10.127-2.9,12.343-2.9,12.343l-58.66,16.432Z" transform="translate(-18.526 -301.725)" fill="#455a64"/>
      <path id="Trazado_973" data-name="Trazado 973" d="M129.222,341.736c1.392,3.286.974,6.606-1.072,7.419s-4.872-1.192-6.334-4.456-.961-6.617,1.086-7.431S127.774,338.449,129.222,341.736Z" transform="translate(-15.866 -298.251)" fill="#263238"/>
      <path id="Trazado_974" data-name="Trazado 974" d="M121.782,334.086c1.462,3.286.974,6.606-1.072,7.42s-4.872-1.192-6.334-4.456-.961-6.617,1.072-7.431S120.335,330.8,121.782,334.086Z" transform="translate(-18.783 -299.124)" fill="#263238"/>
      <path id="Trazado_975" data-name="Trazado 975" d="M168.991,336.721a29.04,29.04,0,0,0,1.225-3.487c1.454-5.828-1.54-11.792-7.628-15.2-2.269-1.292-3.953-1.738-3.9-1.838a4.213,4.213,0,0,1,1.183.267,17.428,17.428,0,0,1,3.007,1.225c6.481,3.343,9.622,9.594,7.837,15.6a11.061,11.061,0,0,1-1.1,2.551A2.881,2.881,0,0,1,168.991,336.721Z" transform="translate(-1.081 -300.633)" fill="#263238"/>
      <path id="Trazado_976" data-name="Trazado 976" d="M149.44,309.352a4.886,4.886,0,0,1,2.561-.49,10.227,10.227,0,0,1,5.819,2.016,13.8,13.8,0,0,1,3.591,4.2,6.008,6.008,0,0,1,.9,1.961,8.655,8.655,0,0,1-1.392-1.782,17.752,17.752,0,0,0-3.619-3.955,10.541,10.541,0,0,0-5.359-2.028Q150.691,309.259,149.44,309.352Z" transform="translate(-4.707 -301.472)" fill="#263238"/>
      <path id="Trazado_977" data-name="Trazado 977" d="M158.426,320.77a46.555,46.555,0,0,1-6.682,3.342,50.218,50.218,0,0,1-7.044,2.863,45.247,45.247,0,0,1,6.682-3.342A46.5,46.5,0,0,1,158.426,320.77Z" transform="translate(-6.565 -300.112)" fill="#fafafa"/>
      <path id="Trazado_978" data-name="Trazado 978" d="M158.84,318.6c.1.134-.251.457-.78.713s-1.058.356-1.155.212.251-.457.78-.713S158.742,318.452,158.84,318.6Z" transform="translate(-1.787 -300.367)" fill="#fafafa"/>
      <path id="Trazado_979" data-name="Trazado 979" d="M149.515,313.13q-3.575,1.882-7.392,3.442-3.634,1.835-7.5,3.342a38.809,38.809,0,0,1,7.141-3.81A42.945,42.945,0,0,1,149.515,313.13Z" transform="translate(-10.517 -300.983)" fill="#fafafa"/>
      <path id="Trazado_980" data-name="Trazado 980" d="M149.6,310.524c.125.122-.334.557-1,.947s-1.322.624-1.392.49.334-.557,1.016-.947S149.485,310.39,149.6,310.524Z" transform="translate(-5.587 -301.285)" fill="#fafafa"/>
      <path id="Trazado_981" data-name="Trazado 981" d="M177.954,314.21a2.926,2.926,0,0,1-.515.323l-1.545.824c-1.392.713-3.327,1.7-5.791,2.919-4.928,2.417-11.791,5.67-19.489,9.168s-14.575,6.584-19.642,8.812l-6.028,2.6-1.657.68a3.2,3.2,0,0,1-.6.2,4.574,4.574,0,0,1,.529-.312l1.587-.769,5.916-2.752,19.586-8.968L169.8,317.92l5.9-2.763,1.629-.735A2.553,2.553,0,0,1,177.954,314.21Z" transform="translate(-15.194 -300.86)" fill="#263238"/>
      <path id="Trazado_982" data-name="Trazado 982" d="M80.386,317.636,76.21,384.39l35.72,2.7,1.977-16.209s12.528,2.5,16.412-6.829c2.45-5.96,4.622-52.627,4.622-52.627Z" transform="translate(-33.416 -301.178)" fill="#ffbe9d"/>
      <path id="Trazado_983" data-name="Trazado 983" d="M145.393,319.364c-3.049,5.8-14.547,10.784-14.547,10.784L128.94,344.92a46.4,46.4,0,0,0-5.123,0c.919-6.94-10.245-5.57-11.373-.858-1.1,4.545,5.373,7.587,5.373,7.587-4.468,5.481-6.278,8.378-12.612,13.513-6.863,5.57-10.552,6.016-17.637,5.849l-7.8-.29s-2.784-5.336-4.816-17.936c-.974-6.06-6.96-14-5.206-23.852,4.789-28.007,43.5-23.038,43.5-23.038C127.742,296.861,152.521,305.717,145.393,319.364Z" transform="translate(-36.074 -302.227)" fill="#263238"/>
      <path id="Trazado_984" data-name="Trazado 984" d="M147.048,431.272l6.682,6.818,24.013-28.252c-.877-.858-1.768-1.582-12.139-12.254-10.733-11.14-21.048-22.448-38.365-24.754A285.975,285.975,0,0,0,91.8,370c-8.436.067-17.164,2.908-24.834,7.341-14.953,8.842-23.02,23.31-21.256,38.122l7.461,51.146L46.71,514.825H149.985Z" transform="translate(-45.468 -294.498)" fill="#c60f7b"/>
      <path id="Trazado_985" data-name="Trazado 985" d="M162.394,392.06a1.163,1.163,0,0,1-.348,0h-4.928c-1.7,0-3.786.078-6.181.267a51.535,51.535,0,0,0-8,1.2A25.179,25.179,0,0,0,138.59,395a18.609,18.609,0,0,0-3.981,2.529,87.473,87.473,0,0,0-6.96,7.163,27.618,27.618,0,0,1-4.274,3.621,16.511,16.511,0,0,1-5.8,2.629,17.3,17.3,0,0,1-6.779,0,67.217,67.217,0,0,1-6.612-1.593,34.151,34.151,0,0,0-6.6-1.226,19.249,19.249,0,0,0-6.417.7A34.215,34.215,0,0,0,80.7,414.185c-2.979,2.15-5.568,4.356-8.436,6.183a27.179,27.179,0,0,1-8.645,4.011,20.757,20.757,0,0,1-8.241,0,17.763,17.763,0,0,1-5.652-2.072,11.714,11.714,0,0,1-2.784-2.228l-.515-.7a.89.89,0,0,1-.153-.245,12.831,12.831,0,0,0,3.619,2.952,17.544,17.544,0,0,0,5.568,1.95,20.762,20.762,0,0,0,8.018-.089,26.8,26.8,0,0,0,8.352-4c2.784-1.816,5.373-4.022,8.352-6.194a34.4,34.4,0,0,1,10.677-5.481,20.29,20.29,0,0,1,6.71-.746,33.48,33.48,0,0,1,6.793,1.3q3.216.931,6.543,1.582a16.716,16.716,0,0,0,6.445,0A16.1,16.1,0,0,0,122.818,408a27.245,27.245,0,0,0,4.176-3.531,85.02,85.02,0,0,1,7.127-7.174,19.262,19.262,0,0,1,4.176-2.573,24.8,24.8,0,0,1,4.455-1.471,50.459,50.459,0,0,1,8.116-1.114c2.422-.156,4.51-.178,6.222-.178s3.021,0,3.912.078h1.016a1.362,1.362,0,0,1,.376.022Z" transform="translate(-45.154 -291.993)" fill="#fafafa"/>
      <path id="Trazado_986" data-name="Trazado 986" d="M171.5,401.716a33.756,33.756,0,0,0-13.043,2.729,31.929,31.929,0,0,0-7.809,4.568,21.086,21.086,0,0,0-6.139,7.921c-.793,1.571-1.559,3.242-2.547,4.891a17,17,0,0,1-4.037,4.657,12.337,12.337,0,0,1-6.64,2.663,32.1,32.1,0,0,1-7.726-.49,27.538,27.538,0,0,0-7.768-.39,11.009,11.009,0,0,0-6.529,3.342,16.437,16.437,0,0,0-3.522,5.748c-.766,2.039-1.295,4.122-2,6.149a17.7,17.7,0,0,1-3.076,5.7,17.343,17.343,0,0,1-5.332,4.155,22.854,22.854,0,0,1-13.224,2.228c-4.315-.6-7.809-2.306-10.983-3.654A35.983,35.983,0,0,0,62.173,449a20.974,20.974,0,0,0-7.253,0,9.487,9.487,0,0,0-4.009,1.716c-.766.579-1.016,1-1.072.969a1.26,1.26,0,0,1,.209-.29,5.7,5.7,0,0,1,.752-.769,9.419,9.419,0,0,1,4.051-1.794,21.021,21.021,0,0,1,7.406-.1,36.027,36.027,0,0,1,9.1,2.9c3.2,1.337,6.682,3,10.844,3.543a22.235,22.235,0,0,0,12.765-2.228,16.757,16.757,0,0,0,5.123-4.022,16.963,16.963,0,0,0,2.951-5.57c.71-1.994,1.239-4.077,2.018-6.161a16.863,16.863,0,0,1,3.633-5.949,11.712,11.712,0,0,1,6.96-3.543,28.579,28.579,0,0,1,8.018.39,31.456,31.456,0,0,0,7.517.512,11.736,11.736,0,0,0,6.264-2.5c3.411-2.663,4.872-6.216,6.487-9.347a25.6,25.6,0,0,1,2.784-4.456,19.468,19.468,0,0,1,3.564-3.576,34.638,34.638,0,0,1,14.937-6.606c.988-.2,1.893-.267,2.673-.368a14.223,14.223,0,0,1,1.977-.089h1.211Z" transform="translate(-43.754 -290.887)" fill="#fafafa"/>
      <path id="Trazado_987" data-name="Trazado 987" d="M48.19,488.774a.748.748,0,0,1,.084-.279c.084-.223.181-.49.32-.813a12.88,12.88,0,0,1,1.865-2.93,15.25,15.25,0,0,1,4.594-3.654,17.81,17.81,0,0,1,3.647-1.47,20.116,20.116,0,0,1,4.455-.8,50.481,50.481,0,0,1,10.4.613c3.675.524,7.559,1.292,11.679,1.838a43.349,43.349,0,0,0,12.946,0,25.778,25.778,0,0,0,6.4-1.883,13.966,13.966,0,0,0,5.081-3.777,12.554,12.554,0,0,0,2.464-5.225,39.455,39.455,0,0,0,.78-5.492c.334-3.609.738-7.308,3.007-10.283a13.322,13.322,0,0,1,4.3-3.587,32.315,32.315,0,0,1,5.178-2.15c3.48-1.114,6.835-1.9,9.647-3.03a22.448,22.448,0,0,0,6.765-4.011,12.685,12.685,0,0,0,3.2-4.389,15.435,15.435,0,0,0,.974-4.3.892.892,0,0,1,0,.29v.847a11,11,0,0,1-.724,3.231,12.691,12.691,0,0,1-3.16,4.534,22.31,22.31,0,0,1-6.849,4.167c-2.784,1.17-6.209,1.961-9.633,3.108a29.9,29.9,0,0,0-5.053,2.128,12.558,12.558,0,0,0-4.093,3.442c-2.144,2.841-2.547,6.428-2.868,10.026a39.392,39.392,0,0,1-.78,5.57,13.126,13.126,0,0,1-2.561,5.437A14.68,14.68,0,0,1,105,479.94a26.832,26.832,0,0,1-6.612,1.938,44.021,44.021,0,0,1-13.21-.078c-4.176-.568-8.018-1.348-11.679-1.883a50.193,50.193,0,0,0-10.231-.691,20.753,20.753,0,0,0-4.357.746,16.783,16.783,0,0,0-8.2,4.913,17.362,17.362,0,0,0-2.52,3.888Z" transform="translate(-44.401 -287.296)" fill="#fafafa"/>
      <path id="Trazado_988" data-name="Trazado 988" d="M166.057,342.46l-5.345,1.716a114.771,114.771,0,0,1,1.684,12.689c.4,4.13-1.541,8.184-5.276,11.051-18.1,13.669-65.133,8.032-73.778,6.562-7.768-1.326-4.928-5.113-4.928-5.113l.1-1.526a5.716,5.716,0,0,0-6,6.216,16.823,16.823,0,0,0,6.236,3.342,63.92,63.92,0,0,0,18.1,3.231c9.48.379,27.033.8,41.19-.468,19.767-1.782,26.741-11.553,28.913-15.975a10.6,10.6,0,0,0,1.086-3.844C168.9,349.423,166.057,342.46,166.057,342.46Z" transform="translate(-34.869 -297.638)" fill="#263238"/>
      <path id="Trazado_989" data-name="Trazado 989" d="M172.349,418.773,155.644,359l6.557-18.593-.4.1c0-1.4,0-7.665-.306-8.177a1.787,1.787,0,0,0-3.216,0,3.538,3.538,0,0,0-.195,1.66c.125,2.518,0,4.98.084,7.475l-.181.056c-.181-1.771-.626-6.205-.64-9.224a4.23,4.23,0,0,0-.306-1.95,1.912,1.912,0,0,0-1.8-1.114,1.947,1.947,0,0,0-1.587,1.17,3.948,3.948,0,0,0-.084,1.961c.153,2.908.515,6.517.418,9.536a76.7,76.7,0,0,1-1.963-10.16,4.837,4.837,0,0,0-.515-1.961,1.98,1.98,0,0,0-1.81-1.014,1.853,1.853,0,0,0-1.531,1.27,4.646,4.646,0,0,0-.111,1.961q.529,5.982,1.058,11.987h-.139a64.141,64.141,0,0,0-2.965-10.528,3.061,3.061,0,0,0-.654-1.181,1.715,1.715,0,0,0-1.392-.49,1.337,1.337,0,0,0-1.044.914,2.893,2.893,0,0,0,0,1.292q.78,5.648,1.086,11.33h0l-3.021,6.305c-.585-.646-2.213-2.607-2.213-2.607l.7-2.128c.6-3.576-.292-5.013-.7-5.492s-4.079,7.319-4.761,8.188,3.717,8.756,3.55,9.235l1.935,17.825,8.812,43.191-3.605-3.676L126.69,437.445l7.239,5.392c7.6,6.283,19.1,7.8,29.233,2.284h0C175.523,438.2,174.729,428.087,172.349,418.773Z" transform="translate(-13.626 -299.2)" fill="#ffbe9d"/>
      <path id="Trazado_990" data-name="Trazado 990" d="M111.266,481.245a10.842,10.842,0,0,1-.251-2.8c0-1.86-.125-4.456-.223-7.587-.167-6.417-.459-15.262-1.044-25.032s-1.392-18.6-1.949-25c-.278-3.142-.515-5.7-.682-7.564a9.825,9.825,0,0,1,0-2.8,10.819,10.819,0,0,1,.64,2.741c.32,1.782.71,4.356,1.141,7.553.849,6.383,1.782,15.229,2.366,25.01s.71,18.66.626,25.077c0,3.22-.139,5.815-.251,7.609A10.371,10.371,0,0,1,111.266,481.245Z" transform="translate(-21.338 -289.883)" fill="#263238"/>
      <path id="Trazado_991" data-name="Trazado 991" d="M110.83,489.249c-.39,0-1.044-2.228-1.392-5.013s-.39-5.1,0-5.136,1.03,2.228,1.392,5.013S111.234,489.215,110.83,489.249Z" transform="translate(-20.498 -282.056)" fill="#263238"/>
      <path id="Trazado_992" data-name="Trazado 992" d="M109.593,376.665q-1.827.257-3.605.691a13.688,13.688,0,0,0-7.253,5.258,12.529,12.529,0,0,0-2.158,5.169,15.341,15.341,0,0,0,.515,6.272,26.692,26.692,0,0,0,3.035,6.6,38.708,38.708,0,0,0,2.227,3.342c.4.535.821,1.114,1.253,1.615s.988,1,1.489,1.515c8.352,8.177,15.883,15.6,21.117,21.111,2.631,2.763,4.705,5.013,6.069,6.628a13.313,13.313,0,0,1,1.949,2.573,18.583,18.583,0,0,1-2.408-2.306c-1.489-1.526-3.689-3.7-6.4-6.384l-21.451-20.977c-.515-.524-1.016-1.014-1.545-1.582a19.672,19.672,0,0,1-1.309-1.682c-.821-1.114-1.587-2.228-2.269-3.342a27.252,27.252,0,0,1-3.062-6.874,15.919,15.919,0,0,1-.4-6.628,13.127,13.127,0,0,1,2.478-5.448,14.778,14.778,0,0,1,3.953-3.587,14.117,14.117,0,0,1,4-1.649,8.836,8.836,0,0,1,1.6-.279,6.938,6.938,0,0,1,1.2-.067C109.259,376.6,109.593,376.62,109.593,376.665Z" transform="translate(-25.97 -293.743)" fill="#263238"/>
    </g>
  </g>
</svg>
