<svg xmlns="http://www.w3.org/2000/svg" xmlns:xlink="http://www.w3.org/1999/xlink" width="584.783" height="592.664" viewBox="0 0 584.783 592.664">
  <defs>
    <clipPath id="clip-path">
      <path id="Trazado_743" data-name="Trazado 743" d="M93.38,244.81l6.679,55.878c0,8.955,16.215,16.223,36.223,16.223s36.223-7.268,36.223-16.223l6.679-55.878Z" transform="translate(-93.38 -244.81)" fill="#fff" stroke="#263238" stroke-linecap="round" stroke-linejoin="round" stroke-width="1"/>
    </clipPath>
  </defs>
  <g id="Online_shopping-bro" data-name="Online shopping-bro" transform="translate(-55.429 -67.004)">
    <g id="freepik--background-simple--inject-16" transform="translate(55.429 67.004)">
      <path id="Trazado_738" data-name="Trazado 738" d="M567.922,470.026s81.133-96.943,60.292-220.919S499.88,60.22,427.776,67.565s-143.9,80.2-214.348,89.2-176.652,73.083-155.186,195S144.939,485.62,250.529,490.1,505.532,550.407,567.922,470.026Z" transform="translate(-55.429 -67.004)" fill="#c60f7b"/>
      <path id="Trazado_739" data-name="Trazado 739" d="M567.922,470.026s81.133-96.943,60.292-220.919S499.88,60.22,427.776,67.565s-143.9,80.2-214.348,89.2-176.652,73.083-155.186,195S144.939,485.62,250.529,490.1,505.532,550.407,567.922,470.026Z" transform="translate(-55.429 -67.004)" fill="#fff" opacity="0.7"/>
    </g>
    <g id="freepik--Desk--inject-16" transform="translate(69.667 361.414)">
      <line id="Línea_1" data-name="Línea 1" x2="563.799" fill="none" stroke="#263238" stroke-linecap="round" stroke-linejoin="round" stroke-width="1"/>
    </g>
    <g id="freepik--Plant--inject-16" transform="translate(78.354 186.988)">
      <ellipse id="Elipse_1" data-name="Elipse 1" cx="47.901" cy="18.324" rx="47.901" ry="18.324" transform="translate(13.597 192.076)" fill="#263238"/>
      <path id="Trazado_740" data-name="Trazado 740" d="M93.38,244.81l6.679,55.878c0,8.955,16.215,16.223,36.223,16.223s36.223-7.268,36.223-16.223l6.679-55.878Z" transform="translate(-59.85 -92.143)" fill="#fff"/>
      <g id="Grupo_125" data-name="Grupo 125" transform="translate(33.53 152.667)" clip-path="url(#clip-path)">
        <path id="Trazado_741" data-name="Trazado 741" d="M130,244.81H93.38l6.679,55.878c0,8.955,16.215,16.223,36.223,16.223q1.949,0,3.838-.092C128.71,295.965,128.517,265.358,130,244.81Z" transform="translate(-93.38 -244.81)" fill="#c60f7b"/>
        <path id="Trazado_742" data-name="Trazado 742" d="M130,244.81H93.38l6.679,55.878c0,8.955,16.215,16.223,36.223,16.223q1.949,0,3.838-.092C128.71,295.965,128.517,265.358,130,244.81Z" transform="translate(-93.38 -244.81)" fill="#fff" opacity="0.4"/>
      </g>
      <path id="Trazado_744" data-name="Trazado 744" d="M93.38,244.81l6.679,55.878c0,8.955,16.215,16.223,36.223,16.223s36.223-7.268,36.223-16.223l6.679-55.878Z" transform="translate(-59.85 -92.143)" fill="none" stroke="#263238" stroke-linecap="round" stroke-linejoin="round" stroke-width="1"/>
      <ellipse id="Elipse_2" data-name="Elipse 2" cx="42.902" cy="19.214" rx="42.902" ry="19.214" transform="translate(33.53 133.453)" fill="#fff" stroke="#263238" stroke-linecap="round" stroke-linejoin="round" stroke-width="1"/>
      <ellipse id="Elipse_3" data-name="Elipse 3" cx="38.335" cy="16.714" rx="38.335" ry="16.714" transform="translate(38.097 135.447)" fill="#263238" stroke="#263238" stroke-linecap="round" stroke-linejoin="round" stroke-width="1"/>
      <path id="Trazado_745" data-name="Trazado 745" d="M137.75,273.052s-3.421-32.539-24.739-57.166-16.1-21.606-16.1-21.606" transform="translate(-58.401 -119.159)" fill="none" stroke="#263238" stroke-linecap="round" stroke-linejoin="round" stroke-width="1"/>
      <path id="Trazado_746" data-name="Trazado 746" d="M160.566,182.52s-25.587,26.39-29.856,56.292-1.488,34.732-1.488,34.732" transform="translate(-42.807 -125.37)" fill="none" stroke="#263238" stroke-linecap="round" stroke-linejoin="round" stroke-width="1"/>
      <path id="Trazado_747" data-name="Trazado 747" d="M131.364,283.278s-5-18.4-10.116-55.372-2.559-56.276-2.559-56.276" transform="translate(-47.821 -131.178)" fill="none" stroke="#263238" stroke-linecap="round" stroke-linejoin="round" stroke-width="1"/>
      <path id="Trazado_748" data-name="Trazado 748" d="M106.774,215.277s-7.155,8-18.164-7.667-7.349-33.95-7.349-33.95,5.608,8.817,14.1,12.528S116.264,210.983,106.774,215.277Z" transform="translate(-66.043 -130.096)" fill="#c60f7b"/>
      <path id="Trazado_749" data-name="Trazado 749" d="M122.086,194.488s-10.235,2.637-11.083-16.7,11.9-32.539,11.9-32.539,0,10.55,5.117,18.4S132.335,196.251,122.086,194.488Z" transform="translate(-51.276 -145.25)" fill="#c60f7b"/>
      <path id="Trazado_750" data-name="Trazado 750" d="M148.322,203.052s-9.967-3.573-.4-20.226S175.2,162.34,175.2,162.34s-5.608,8.832-5.534,18.4S156.013,210.305,148.322,203.052Z" transform="translate(-35.279 -136.134)" fill="#c60f7b"/>
      <path id="Trazado_751" data-name="Trazado 751" d="M153.595,263.847s6.828-31.665,21.332-46.6a45.883,45.883,0,0,1,32.415-14.077s-17.063,7.038-22.18,21.1-13.686,44.852-13.686,44.852h-42.6S123.739,257.7,109.235,244.5,70.84,222.522,70.84,222.522s26.449-9.676,45.223-1.763,32.415,41.4,32.415,41.4Z" transform="translate(-70.84 -114.355)" fill="#c60f7b"/>
      <path id="Trazado_752" data-name="Trazado 752" d="M149.57,246.24s-16.929-11.976-35.4-9.983-20.008,17.466-20.826,21.959a53.315,53.315,0,0,0-.759,7.989s23.8-7.483,38.469-9.983S151.876,260.716,149.57,246.24Z" transform="translate(-60.24 -96.824)" fill="#c60f7b"/>
      <path id="Trazado_753" data-name="Trazado 753" d="M126.747,246.24s10.651-11.976,22.314-9.983,12.585,17.466,13.061,21.959q.441,3.979.491,7.989s-15.01-7.483-24.2-9.983S125.289,260.716,126.747,246.24Z" transform="translate(-43.724 -96.824)" fill="#c60f7b"/>
    </g>
    <g id="freepik--Device--inject-16" transform="translate(161.243 143.853)">
      <path id="Trazado_754" data-name="Trazado 754" d="M173.579,117.12H495.584A12.3,12.3,0,0,1,507.693,129.6V361.638H161.47V129.587a12.3,12.3,0,0,1,12.109-12.467Z" transform="translate(-109.538 -117.12)" fill="#263238" stroke="#263238" stroke-linecap="round" stroke-linejoin="round" stroke-width="1"/>
      <path id="Trazado_755" data-name="Trazado 755" d="M576.632,384.67H126.56l51.932-108.09H524.7Z" transform="translate(-126.56 -32.062)" fill="#fff" stroke="#263238" stroke-linecap="round" stroke-linejoin="round" stroke-width="1"/>
      <rect id="Rectángulo_219" data-name="Rectángulo 219" width="304.273" height="205.8" transform="translate(72.907 19.352)" fill="#c60f7b" stroke="#263238" stroke-linecap="round" stroke-linejoin="round" stroke-width="1"/>
      <path id="Trazado_892" data-name="Trazado 892" d="M42.889-1.442A42.1,42.1,0,0,1,85.9,41.565,45.3,45.3,0,0,1,41.565,85.9,42.1,42.1,0,0,1-1.442,42.889,45.3,45.3,0,0,1,42.889-1.442Z" transform="translate(67.317 133.604) rotate(-45)" fill="#263238"/>
      <path id="Trazado_893" data-name="Trazado 893" d="M42.889-1.442A42.1,42.1,0,0,1,85.9,41.565,45.3,45.3,0,0,1,41.565,85.9,42.1,42.1,0,0,1-1.442,42.889,45.3,45.3,0,0,1,42.889-1.442Z" transform="translate(166.706 133.601) rotate(-45)" fill="#263238"/>
      <path id="Trazado_894" data-name="Trazado 894" d="M42.732-.657c23.789-.162,42.944,19.524,42.782,43.97S65.936,87.707,42.147,87.869-.8,68.344-.635,43.9,18.943-.5,42.732-.657Z" transform="matrix(0.974, -0.227, 0.227, 0.974, 274.588, 100.75)" fill="#263238"/>
      <path id="Trazado_756" data-name="Trazado 756" d="M192.09,215.443s18.952-53.363,30.094-53.363,30.763,52.734,30.763,52.734l-3.317.307s-19.264-46.217-24.977-49.069-16.259,13.954-29.2,49.33Z" transform="translate(-94.608 -93.138)" fill="#fff" stroke="#263238" stroke-linecap="round" stroke-linejoin="round" stroke-width="1"/>
      <path id="Trazado_757" data-name="Trazado 757" d="M195.482,194.85h56.96a6.528,6.528,0,0,1,6.426,6.624v31.5a5.228,5.228,0,0,1-5.147,5.306h-59.5a5.228,5.228,0,0,1-5.147-5.306V201.49a6.529,6.529,0,0,1,6.412-6.64Z" transform="translate(-96.08 -75.658)" fill="#fff" stroke="#263238" stroke-linecap="round" stroke-linejoin="round" stroke-width="1"/>
      <line id="Línea_2" data-name="Línea 2" x2="63.193" transform="translate(93.57 142.47)" fill="#fff" stroke="#263238" stroke-linecap="round" stroke-linejoin="round" stroke-width="1"/>
      <path id="Trazado_758" data-name="Trazado 758" d="M234.757,195.86s-1.488,1.871-1.488,7.146-1.8,33.2-1.488,34.425,2.112.322,2.112.322" transform="translate(-75.272 -75.119)" fill="#fff" stroke="#263238" stroke-linecap="round" stroke-linejoin="round" stroke-width="1"/>
      <rect id="Rectángulo_220" data-name="Rectángulo 220" width="4.82" height="11.163" transform="translate(122.756 136.259)" fill="#fff" stroke="#263238" stroke-linecap="round" stroke-linejoin="round" stroke-width="1"/>
      <path id="Trazado_759" data-name="Trazado 759" d="M253.47,187.969s20.1-1.809,43.691-1.809,34.676,1.533,34.958,3.067-3.2,21.023-3.2,22.817,0,27.034-.58,28.537-3.213,2.7-4.374,2.99-62.345.9-64.086.9a3.562,3.562,0,0,1-3.213-3.6c0-1.794.878-21.621-.58-28.828S253.47,187.969,253.47,187.969Z" transform="translate(-64.679 -80.293)" fill="#fff" stroke="#263238" stroke-linecap="round" stroke-linejoin="round" stroke-width="1"/>
      <path id="Trazado_760" data-name="Trazado 760" d="M268,209.05s-.3-23.722,2.038-31.834a16.442,16.442,0,0,1,15.441-12.007,21.806,21.806,0,0,1,19.458,16.546c2.975,11.7.58,26.421.3,27.924s-3.5,5.7-4.091-2.407.6-27.019-1.741-32.432a13.769,13.769,0,0,0-15.144-7.805c-6.129,1.533-9.327,4.2-10.488,12.007s1.16,25.838-.3,29.733S268.525,214.448,268,209.05Z" transform="translate(-57.598 -91.468)" fill="#fff" stroke="#263238" stroke-linecap="round" stroke-linejoin="round" stroke-width="1"/>
      <path id="Trazado_761" data-name="Trazado 761" d="M257.775,187.53s-1.488,15.917-1.488,21.928-.3,9.906-.3,9.906" transform="translate(-63.45 -79.562)" fill="#fff" stroke="#263238" stroke-linecap="round" stroke-linejoin="round" stroke-width="1"/>
      <path id="Trazado_762" data-name="Trazado 762" d="M303,187.73s.6,15.917.6,25.225" transform="translate(-40.529 -79.456)" fill="none" stroke="#263238" stroke-linecap="round" stroke-linejoin="round" stroke-width="1"/>
      <path id="Trazado_763" data-name="Trazado 763" d="M362.183,203.686a1.5,1.5,0,0,1-1.488-1.319c-2.871-18.508-6.471-38.918-8.316-45.542-2.722,6.256-8.7,26.175-13.656,44.285a1.538,1.538,0,0,1-1.9,1.112,1.6,1.6,0,0,1-1.079-1.955c0-.123,3.184-11.669,6.635-23.185,7.185-24.013,8.539-24.535,9.61-24.887a1.727,1.727,0,0,1,1.607.245c.788.6,1.874,1.411,6.159,25.823,2.068,11.777,3.883,23.492,3.9,23.615a1.57,1.57,0,0,1-.26,1.176,1.48,1.48,0,0,1-1,.618.953.953,0,0,1-.208.015Z" transform="translate(-24.588 -98.463)" fill="#fff" stroke="#263238" stroke-linecap="round" stroke-linejoin="round" stroke-width="1"/>
      <path id="Trazado_764" data-name="Trazado 764" d="M321.05,182.908s29.618-1.871,39.823-1.457,28.339,1.533,28.264,2.745-.431,39.869-1.488,47.536-6.367,17.3-10.978,19.06-20.112,1.119-28.056.782-15.1-1.411-18.669-6.64-6.129-27.187-6.129-27.187Z" transform="translate(-31.727 -82.837)" fill="#fff" stroke="#263238" stroke-linecap="round" stroke-linejoin="round" stroke-width="1"/>
      <path id="Trazado_765" data-name="Trazado 765" d="M338.82,188.952a2.978,2.978,0,1,0-3.154,2.99,2.922,2.922,0,0,0,2.193-.8A3.109,3.109,0,0,0,338.82,188.952Z" transform="translate(-25.964 -80.478)" fill="#fff" stroke="#263238" stroke-linecap="round" stroke-linejoin="round" stroke-width="1"/>
      <path id="Trazado_895" data-name="Trazado 895" d="M3.091-.033a3.031,3.031,0,0,1,3.1,3.007A3.1,3.1,0,0,1,3.061,6.012,3.031,3.031,0,0,1-.034,3,3.1,3.1,0,0,1,3.091-.033Z" transform="translate(334.699 112.457) rotate(-80.56)" fill="#fff" stroke="#263238" stroke-linecap="round" stroke-width="1"/>
      <path id="Trazado_766" data-name="Trazado 766" d="M324.53,216.15s21.273-1.855,60.2.169" transform="translate(-30.031 -64.71)" fill="#fff" stroke="#263238" stroke-linecap="round" stroke-linejoin="round" stroke-width="1"/>
      <rect id="Rectángulo_221" data-name="Rectángulo 221" width="293.815" height="24.627" transform="translate(77.623 25.424)" fill="#263238"/>
      <line id="Línea_3" data-name="Línea 3" x2="29.127" transform="translate(220.12 39.455)" fill="none" stroke="#fff" stroke-miterlimit="10" stroke-width="2"/>
      <line id="Línea_4" data-name="Línea 4" x2="29.127" transform="translate(282.941 39.455)" fill="none" stroke="#fff" stroke-miterlimit="10" stroke-width="2"/>
      <path id="Trazado_767" data-name="Trazado 767" d="M377.374,138.781a.59.59,0,0,0-.491-.261H360.921l-.61-1.9a.626.626,0,0,0-.6-.429H355.67a.62.62,0,0,0-.61.629.64.64,0,0,0,.173.455.6.6,0,0,0,.437.19h3.6l3.9,12.068a.626.626,0,0,0,.6.429h.223a2.321,2.321,0,0,0-.342,1.181,2.229,2.229,0,0,0,1.013,2.065,2.088,2.088,0,0,0,2.244,0,2.229,2.229,0,0,0,1.013-2.065,2.178,2.178,0,0,0-.342-1.181h2.975a2.306,2.306,0,0,0-.327,1.181,2.229,2.229,0,0,0,1.012,2.065,2.088,2.088,0,0,0,2.244,0,2.229,2.229,0,0,0,1.013-2.065,2.321,2.321,0,0,0-.342-1.181h.476a.644.644,0,0,0,.441-1.094.6.6,0,0,0-.441-.179H364.209l-.684-2.116h11.6a.613.613,0,0,0,.6-.46l1.77-6.778a.659.659,0,0,0-.119-.552Zm-11.6,13.295a.907.907,0,0,1-.849-.567.957.957,0,0,1,.187-1.025.888.888,0,0,1,.991-.21.936.936,0,0,1,.564.866.922.922,0,0,1-.893.935Zm6.56,0a.907.907,0,0,1-.849-.567.957.957,0,0,1,.187-1.025.888.888,0,0,1,.991-.21.959.959,0,0,1,.308,1.526.879.879,0,0,1-.636.275Zm1.651-6.778h-2.291v-5.49h2.291Zm-5.831-5.49h2.306v5.49h-2.306Zm-1.235,5.49H364.61v-5.49h2.261Zm-5.593-5.49h2.053v5.49h-.283Zm13.909,3.236v-3.236h.833Z" transform="translate(-15.144 -106.948)" fill="#fff"/>
      <path id="Trazado_768" data-name="Trazado 768" d="M376.264,139.274a4.686,4.686,0,0,0-2.749-4.375,4.437,4.437,0,0,0-4.969.964,4.782,4.782,0,0,0-1.017,5.106,4.539,4.539,0,0,0,4.2,2.905A4.621,4.621,0,0,0,376.264,139.274Z" transform="translate(-9.23 -107.839)" fill="#fff"/>
      <path id="Trazado_769" data-name="Trazado 769" d="M369.075,141.586a.57.57,0,0,1-.208-.353.971.971,0,0,1,.238-.859l2.083-2.1a1.082,1.082,0,0,0,.416-.782.6.6,0,0,0-.238-.491.875.875,0,0,0-.565-.184h-.506l-.208.092-.223.138-.193.107a.361.361,0,0,1-.253,0,.445.445,0,0,1-.253-.169,1.069,1.069,0,0,1-.149-.291.473.473,0,0,1,0-.322.516.516,0,0,1,.238-.276,3.242,3.242,0,0,1,1.845-.506,1.916,1.916,0,0,1,1.369.537,1.649,1.649,0,0,1,.521,1.227,2.042,2.042,0,0,1-.238.951,2.952,2.952,0,0,1-.744.9l-1.592,1.3H372.5a.311.311,0,0,1,.283.169.769.769,0,0,1,.1.383.943.943,0,0,1-.1.414.34.34,0,0,1-.283.169h-2.975a.522.522,0,0,1-.446-.061Z" transform="translate(-8.422 -107.268)" fill="#263238"/>
      <path id="Trazado_770" data-name="Trazado 770" d="M296,151.687H188.445a7.049,7.049,0,0,1-5.065-2.166,7.493,7.493,0,0,1-2.09-5.225h0a7.268,7.268,0,0,1,7.155-7.376H296a7.268,7.268,0,0,1,7.155,7.376h0a7.493,7.493,0,0,1-2.09,5.225A7.049,7.049,0,0,1,296,151.687Z" transform="translate(-99.874 -106.558)" fill="#fff"/>
      <line id="Línea_5" data-name="Línea 5" x2="44.033" transform="translate(104.95 191.738)" fill="none" stroke="#263238" stroke-linecap="round" stroke-linejoin="round" stroke-width="2"/>
      <line id="Línea_6" data-name="Línea 6" x2="44.033" transform="translate(104.95 200.341)" fill="none" stroke="#263238" stroke-linecap="round" stroke-linejoin="round" stroke-width="2"/>
      <line id="Línea_7" data-name="Línea 7" x2="44.048" transform="translate(204.396 191.738)" fill="none" stroke="#263238" stroke-linecap="round" stroke-linejoin="round" stroke-width="2"/>
      <line id="Línea_8" data-name="Línea 8" x2="44.048" transform="translate(204.396 200.341)" fill="none" stroke="#263238" stroke-linecap="round" stroke-linejoin="round" stroke-width="2"/>
      <line id="Línea_9" data-name="Línea 9" x2="44.033" transform="translate(303.856 191.738)" fill="none" stroke="#263238" stroke-linecap="round" stroke-linejoin="round" stroke-width="2"/>
      <line id="Línea_10" data-name="Línea 10" x2="44.033" transform="translate(303.856 200.341)" fill="none" stroke="#263238" stroke-linecap="round" stroke-linejoin="round" stroke-width="2"/>
      <path id="Trazado_771" data-name="Trazado 771" d="M274.327,303.482l.6-13.172H256.64l-1.22,13.172Z" transform="translate(-63.728 -24.738)" fill="#263238" stroke="#fff" stroke-linecap="round" stroke-linejoin="round" stroke-width="1"/>
      <path id="Trazado_772" data-name="Trazado 772" d="M299.752,303.482l-.625-13.172h-18.3l.015,13.172Z" transform="translate(-51.339 -24.738)" fill="#263238" stroke="#fff" stroke-linecap="round" stroke-linejoin="round" stroke-width="1"/>
      <path id="Trazado_773" data-name="Trazado 773" d="M361.032,312.977h19.547L376,298.9H357.09Z" transform="translate(-14.154 -20.156)" fill="#263238" stroke="#fff" stroke-linecap="round" stroke-linejoin="round" stroke-width="1"/>
      <path id="Trazado_774" data-name="Trazado 774" d="M261.612,303.482l1.22-13.172h-18.3l-1.815,13.172Z" transform="translate(-69.921 -24.738)" fill="#263238" stroke="#fff" stroke-linecap="round" stroke-linejoin="round" stroke-width="1"/>
      <path id="Trazado_775" data-name="Trazado 775" d="M236.207,303.482l2.425-13.172H220.35l-3.05,13.172Z" transform="translate(-82.316 -24.738)" fill="#263238" stroke="#fff" stroke-linecap="round" stroke-linejoin="round" stroke-width="1"/>
      <path id="Trazado_776" data-name="Trazado 776" d="M351.382,303.482l-3.064-13.172h-18.3l2.455,13.172Z" transform="translate(-27.354 -24.738)" fill="#263238" stroke="#fff" stroke-linecap="round" stroke-linejoin="round" stroke-width="1"/>
      <path id="Trazado_777" data-name="Trazado 777" d="M364.292,303.482,360.6,290.31H342.32l3.064,13.172Z" transform="translate(-21.356 -24.738)" fill="#263238" stroke="#fff" stroke-linecap="round" stroke-linejoin="round" stroke-width="1"/>
      <path id="Trazado_778" data-name="Trazado 778" d="M223.5,303.482l3.05-13.172h-18.3l-3.66,13.172Z" transform="translate(-88.513 -24.738)" fill="#263238" stroke="#fff" stroke-linecap="round" stroke-linejoin="round" stroke-width="1"/>
      <path id="Trazado_779" data-name="Trazado 779" d="M312.662,303.482l-1.235-13.172h-18.3l.625,13.172Z" transform="translate(-45.341 -24.738)" fill="#263238" stroke="#fff" stroke-linecap="round" stroke-linejoin="round" stroke-width="1"/>
      <path id="Trazado_780" data-name="Trazado 780" d="M377.207,303.482l-4.3-13.172h-18.3l3.689,13.172Z" transform="translate(-15.364 -24.738)" fill="#263238" stroke="#fff" stroke-linecap="round" stroke-linejoin="round" stroke-width="1"/>
      <path id="Trazado_781" data-name="Trazado 781" d="M338.472,303.482l-2.455-13.172h-18.3l1.845,13.172Z" transform="translate(-33.351 -24.738)" fill="#263238" stroke="#fff" stroke-linecap="round" stroke-linejoin="round" stroke-width="1"/>
      <path id="Trazado_782" data-name="Trazado 782" d="M325.557,303.482l-1.845-13.172H305.43l1.235,13.172Z" transform="translate(-39.344 -24.738)" fill="#263238" stroke="#fff" stroke-linecap="round" stroke-linejoin="round" stroke-width="1"/>
      <path id="Trazado_783" data-name="Trazado 783" d="M287.037,303.482l-.015-13.172h-18.3l-.6,13.172Z" transform="translate(-57.531 -24.738)" fill="#263238" stroke="#fff" stroke-linecap="round" stroke-linejoin="round" stroke-width="1"/>
      <path id="Trazado_784" data-name="Trazado 784" d="M199.789,298.9H180.881l-5.221,14.077h19.562Z" transform="translate(-102.619 -20.156)" fill="#263238" stroke="#fff" stroke-linecap="round" stroke-linejoin="round" stroke-width="1"/>
      <path id="Trazado_785" data-name="Trazado 785" d="M202.347,290.31H184.064l-4.894,13.172h18.907Z" transform="translate(-100.908 -24.738)" fill="#263238" stroke="#fff" stroke-linecap="round" stroke-linejoin="round" stroke-width="1"/>
      <path id="Trazado_786" data-name="Trazado 786" d="M210.787,303.482l3.659-13.172h-18.3l-4.269,13.172Z" transform="translate(-94.71 -24.738)" fill="#263238" stroke="#fff" stroke-linecap="round" stroke-linejoin="round" stroke-width="1"/>
      <path id="Trazado_787" data-name="Trazado 787" d="M173.87,317.92l-6.01,16.224h21.02l5.251-16.224Z" transform="translate(-106.422 -10.01)" fill="#263238" stroke="#fff" stroke-linecap="round" stroke-linejoin="round" stroke-width="1"/>
      <path id="Trazado_788" data-name="Trazado 788" d="M197.055,308.08H177.493L171.9,323.169h20.261Z" transform="translate(-104.452 -15.259)" fill="#263238" stroke="#fff" stroke-linecap="round" stroke-linejoin="round" stroke-width="1"/>
      <path id="Trazado_789" data-name="Trazado 789" d="M187.241,317.92l-5.251,16.224h21.02L207.5,317.92Z" transform="translate(-99.533 -10.01)" fill="#263238" stroke="#fff" stroke-linecap="round" stroke-linejoin="round" stroke-width="1"/>
      <path id="Trazado_790" data-name="Trazado 790" d="M248.917,303.482l1.815-13.172h-18.3l-2.425,13.172Z" transform="translate(-76.118 -24.738)" fill="#263238" stroke="#fff" stroke-linecap="round" stroke-linejoin="round" stroke-width="1"/>
      <path id="Trazado_791" data-name="Trazado 791" d="M247.807,312.977l1.964-14.077H230.863l-2.6,14.077Z" transform="translate(-76.971 -20.156)" fill="#263238" stroke="#fff" stroke-linecap="round" stroke-linejoin="round" stroke-width="1"/>
      <path id="Trazado_792" data-name="Trazado 792" d="M234.672,312.977l2.6-14.077H218.368l-3.258,14.077Z" transform="translate(-83.383 -20.156)" fill="#263238" stroke="#fff" stroke-linecap="round" stroke-linejoin="round" stroke-width="1"/>
      <path id="Trazado_793" data-name="Trazado 793" d="M260.962,312.977l1.294-14.077H243.364L241.4,312.977Z" transform="translate(-70.564 -20.156)" fill="#263238" stroke="#fff" stroke-linecap="round" stroke-linejoin="round" stroke-width="1"/>
      <path id="Trazado_794" data-name="Trazado 794" d="M212.284,298.9H193.377l-4.567,14.077h19.562Z" transform="translate(-96.207 -20.156)" fill="#263238" stroke="#fff" stroke-linecap="round" stroke-linejoin="round" stroke-width="1"/>
      <path id="Trazado_795" data-name="Trazado 795" d="M363.95,323.169h20.261l-4.924-15.089H359.74Z" transform="translate(-12.862 -15.259)" fill="#263238" stroke="#fff" stroke-linecap="round" stroke-linejoin="round" stroke-width="1"/>
      <path id="Trazado_796" data-name="Trazado 796" d="M221.522,312.977,224.78,298.9H205.872l-3.912,14.077Z" transform="translate(-89.795 -20.156)" fill="#263238" stroke="#fff" stroke-linecap="round" stroke-linejoin="round" stroke-width="1"/>
      <path id="Trazado_797" data-name="Trazado 797" d="M190.414,308.08l-4.894,15.089h20.261l4.2-15.089Z" transform="translate(-97.811 -15.259)" fill="#263238" stroke="#fff" stroke-linecap="round" stroke-linejoin="round" stroke-width="1"/>
      <path id="Trazado_798" data-name="Trazado 798" d="M340.5,312.977,337.867,298.9H318.96l1.979,14.077Z" transform="translate(-32.747 -20.156)" fill="#263238" stroke="#fff" stroke-linecap="round" stroke-linejoin="round" stroke-width="1"/>
      <path id="Trazado_799" data-name="Trazado 799" d="M327.131,312.977,325.152,298.9H306.26l1.309,14.077Z" transform="translate(-38.939 -20.156)" fill="#263238" stroke="#fff" stroke-linecap="round" stroke-linejoin="round" stroke-width="1"/>
      <path id="Trazado_800" data-name="Trazado 800" d="M367.229,312.977,363.287,298.9H344.38l3.288,14.077Z" transform="translate(-20.352 -20.156)" fill="#263238" stroke="#fff" stroke-linecap="round" stroke-linejoin="round" stroke-width="1"/>
      <path id="Trazado_801" data-name="Trazado 801" d="M287.262,312.977l-.015-14.077H268.34l-.64,14.077Z" transform="translate(-57.741 -20.156)" fill="#263238" stroke="#fff" stroke-linecap="round" stroke-linejoin="round" stroke-width="1"/>
      <path id="Trazado_802" data-name="Trazado 802" d="M313.766,312.977,312.457,298.9H293.55l.669,14.077Z" transform="translate(-45.136 -20.156)" fill="#263238" stroke="#fff" stroke-linecap="round" stroke-linejoin="round" stroke-width="1"/>
      <path id="Trazado_803" data-name="Trazado 803" d="M300.417,312.977l-.669-14.077H280.84l.015,14.077Z" transform="translate(-51.334 -20.156)" fill="#263238" stroke="#fff" stroke-linecap="round" stroke-linejoin="round" stroke-width="1"/>
      <path id="Trazado_804" data-name="Trazado 804" d="M274.112,312.977l.64-14.077H255.844l-1.294,14.077Z" transform="translate(-64.153 -20.156)" fill="#263238" stroke="#fff" stroke-linecap="round" stroke-linejoin="round" stroke-width="1"/>
      <path id="Trazado_805" data-name="Trazado 805" d="M307.14,308.08l1.428,15.089h20.246L326.7,308.08Z" transform="translate(-38.51 -15.259)" fill="#263238" stroke="#fff" stroke-linecap="round" stroke-linejoin="round" stroke-width="1"/>
      <path id="Trazado_806" data-name="Trazado 806" d="M320.29,308.08l2.112,15.089h20.261l-2.812-15.089Z" transform="translate(-32.098 -15.259)" fill="#263238" stroke="#fff" stroke-linecap="round" stroke-linejoin="round" stroke-width="1"/>
      <path id="Trazado_807" data-name="Trazado 807" d="M203.335,308.08l-4.2,15.089H219.4l3.5-15.089Z" transform="translate(-91.17 -15.259)" fill="#263238" stroke="#fff" stroke-linecap="round" stroke-linejoin="round" stroke-width="1"/>
      <path id="Trazado_808" data-name="Trazado 808" d="M333.44,308.08l2.811,15.089h20.261L353,308.08Z" transform="translate(-25.686 -15.259)" fill="#263238" stroke="#fff" stroke-linecap="round" stroke-linejoin="round" stroke-width="1"/>
      <path id="Trazado_809" data-name="Trazado 809" d="M280.85,308.08l.015,15.089h20.261l-.714-15.089Z" transform="translate(-51.329 -15.259)" fill="#263238" stroke="#fff" stroke-linecap="round" stroke-linejoin="round" stroke-width="1"/>
      <path id="Trazado_810" data-name="Trazado 810" d="M346.59,308.08l3.511,15.089h20.261l-4.21-15.089Z" transform="translate(-19.274 -15.259)" fill="#263238" stroke="#fff" stroke-linecap="round" stroke-linejoin="round" stroke-width="1"/>
      <path id="Trazado_811" data-name="Trazado 811" d="M294,308.08l.714,15.089h20.261l-1.428-15.089Z" transform="translate(-44.917 -15.259)" fill="#263238" stroke="#fff" stroke-linecap="round" stroke-linejoin="round" stroke-width="1"/>
      <path id="Trazado_812" data-name="Trazado 812" d="M229.177,308.08l-2.8,15.089h20.261l2.083-15.089Z" transform="translate(-77.888 -15.259)" fill="#263238" stroke="#fff" stroke-linecap="round" stroke-linejoin="round" stroke-width="1"/>
      <path id="Trazado_813" data-name="Trazado 813" d="M216.256,308.08l-3.5,15.089h20.261l2.8-15.089Z" transform="translate(-84.529 -15.259)" fill="#263238" stroke="#fff" stroke-linecap="round" stroke-linejoin="round" stroke-width="1"/>
      <path id="Trazado_814" data-name="Trazado 814" d="M267.924,308.08l-.684,15.089H287.5l-.015-15.089Z" transform="translate(-57.965 -15.259)" fill="#263238" stroke="#fff" stroke-linecap="round" stroke-linejoin="round" stroke-width="1"/>
      <path id="Trazado_815" data-name="Trazado 815" d="M255,308.08l-1.383,15.089h20.261l.684-15.089Z" transform="translate(-64.606 -15.259)" fill="#263238" stroke="#fff" stroke-linecap="round" stroke-linejoin="round" stroke-width="1"/>
      <path id="Trazado_816" data-name="Trazado 816" d="M242.083,308.08,240,323.169h20.261l1.383-15.089Z" transform="translate(-71.247 -15.259)" fill="#263238" stroke="#fff" stroke-linecap="round" stroke-linejoin="round" stroke-width="1"/>
      <path id="Trazado_817" data-name="Trazado 817" d="M353.865,312.977,350.577,298.9H331.67l2.633,14.077Z" transform="translate(-26.549 -20.156)" fill="#263238" stroke="#fff" stroke-linecap="round" stroke-linejoin="round" stroke-width="1"/>
      <path id="Trazado_818" data-name="Trazado 818" d="M200.743,295l4.374-13.494H187.443L182.46,295Z" transform="translate(-99.303 -29.432)" fill="#263238" stroke="#fff" stroke-linecap="round" stroke-linejoin="round" stroke-width="1"/>
      <path id="Trazado_819" data-name="Trazado 819" d="M189.784,290.31h-16.9l-5.445,13.172h17.449Z" transform="translate(-106.627 -24.738)" fill="#263238" stroke="#fff" stroke-linecap="round" stroke-linejoin="round" stroke-width="1"/>
      <path id="Trazado_820" data-name="Trazado 820" d="M192.983,281.51h-16.3L171.1,295H188Z" transform="translate(-104.842 -29.432)" fill="#263238" stroke="#fff" stroke-linecap="round" stroke-linejoin="round" stroke-width="1"/>
      <path id="Trazado_821" data-name="Trazado 821" d="M186.8,298.9h-17.45l-5.817,14.077h18.045Z" transform="translate(-108.534 -20.156)" fill="#263238" stroke="#fff" stroke-linecap="round" stroke-linejoin="round" stroke-width="1"/>
      <path id="Trazado_822" data-name="Trazado 822" d="M183.622,308.08H165.578l-6.248,15.089h18.7Z" transform="translate(-110.581 -15.259)" fill="#263238" stroke="#fff" stroke-linecap="round" stroke-linejoin="round" stroke-width="1"/>
      <path id="Trazado_823" data-name="Trazado 823" d="M180.228,317.92h-18.7l-6.709,16.224h19.4Z" transform="translate(-112.781 -10.01)" fill="#263238" stroke="#fff" stroke-linecap="round" stroke-linejoin="round" stroke-width="1"/>
      <path id="Trazado_824" data-name="Trazado 824" d="M382.5,298.9l5.251,14.077h17.3L399.235,298.9Z" transform="translate(-1.765 -20.156)" fill="#263238" stroke="#fff" stroke-linecap="round" stroke-linejoin="round" stroke-width="1"/>
      <path id="Trazado_825" data-name="Trazado 825" d="M391.653,323.169h17.926l-6.248-15.089h-17.3Z" transform="translate(-0.043 -15.259)" fill="#263238" stroke="#fff" stroke-linecap="round" stroke-linejoin="round" stroke-width="1"/>
      <path id="Trazado_826" data-name="Trazado 826" d="M395.85,334.144h18.595l-6.709-16.224H389.81Z" transform="translate(1.8 -10.01)" fill="#263238" stroke="#fff" stroke-linecap="round" stroke-linejoin="round" stroke-width="1"/>
      <path id="Trazado_827" data-name="Trazado 827" d="M299.132,295l-.64-13.494H280.82L280.835,295Z" transform="translate(-51.343 -29.432)" fill="#263238" stroke="#fff" stroke-linecap="round" stroke-linejoin="round" stroke-width="1"/>
      <path id="Trazado_828" data-name="Trazado 828" d="M384.1,303.482H400.84L395.4,290.31H379.21Z" transform="translate(-3.369 -24.738)" fill="#263238" stroke="#fff" stroke-linecap="round" stroke-linejoin="round" stroke-width="1"/>
      <path id="Trazado_829" data-name="Trazado 829" d="M377.8,323.169h20.261l-5.623-15.089H372.88Z" transform="translate(-6.455 -15.259)" fill="#263238" stroke="#fff" stroke-linecap="round" stroke-linejoin="round" stroke-width="1"/>
      <path id="Trazado_830" data-name="Trazado 830" d="M213.047,295,216.8,281.51H199.124L194.75,295Z" transform="translate(-93.311 -29.432)" fill="#263238" stroke="#fff" stroke-linecap="round" stroke-linejoin="round" stroke-width="1"/>
      <path id="Trazado_831" data-name="Trazado 831" d="M366.91,290.31l4.3,13.172H390.1l-4.894-13.172Z" transform="translate(-9.366 -24.738)" fill="#263238" stroke="#fff" stroke-linecap="round" stroke-linejoin="round" stroke-width="1"/>
      <path id="Trazado_832" data-name="Trazado 832" d="M397.043,295l-5.579-13.494H375.83L380.858,295Z" transform="translate(-5.017 -29.432)" fill="#263238" stroke="#fff" stroke-linecap="round" stroke-linejoin="round" stroke-width="1"/>
      <path id="Trazado_833" data-name="Trazado 833" d="M386.646,295l-5.028-13.494H363.96L368.348,295Z" transform="translate(-10.805 -29.432)" fill="#263238" stroke="#fff" stroke-linecap="round" stroke-linejoin="round" stroke-width="1"/>
      <path id="Trazado_834" data-name="Trazado 834" d="M335.33,317.92l3.035,16.224h21l-3.778-16.224Z" transform="translate(-24.765 -10.01)" fill="#263238" stroke="#fff" stroke-linecap="round" stroke-linejoin="round" stroke-width="1"/>
      <path id="Trazado_835" data-name="Trazado 835" d="M381.471,334.144h21.02l-6.04-16.224H376.19Z" transform="translate(-4.841 -10.01)" fill="#263238" stroke="#fff" stroke-linecap="round" stroke-linejoin="round" stroke-width="1"/>
      <path id="Trazado_836" data-name="Trazado 836" d="M374.141,295l-4.388-13.494H352.08L355.844,295Z" transform="translate(-16.597 -29.432)" fill="#263238" stroke="#fff" stroke-linecap="round" stroke-linejoin="round" stroke-width="1"/>
      <path id="Trazado_837" data-name="Trazado 837" d="M362.57,317.92l4.537,16.224h21l-5.281-16.224Z" transform="translate(-11.482 -10.01)" fill="#263238" stroke="#fff" stroke-linecap="round" stroke-linejoin="round" stroke-width="1"/>
      <path id="Trazado_838" data-name="Trazado 838" d="M348.95,317.92l3.778,16.224h21.02l-4.537-16.224Z" transform="translate(-18.124 -10.01)" fill="#263238" stroke="#fff" stroke-linecap="round" stroke-linejoin="round" stroke-width="1"/>
      <path id="Trazado_839" data-name="Trazado 839" d="M374.382,312.977h19.562L388.692,298.9H369.8Z" transform="translate(-7.957 -20.156)" fill="#263238" stroke="#fff" stroke-linecap="round" stroke-linejoin="round" stroke-width="1"/>
      <path id="Trazado_840" data-name="Trazado 840" d="M262.237,295l1.235-13.494H245.8L243.94,295Z" transform="translate(-69.326 -29.432)" fill="#263238" stroke="#fff" stroke-linecap="round" stroke-linejoin="round" stroke-width="1"/>
      <path id="Trazado_841" data-name="Trazado 841" d="M361.636,295l-3.764-13.494H340.2L343.354,295Z" transform="translate(-22.39 -29.432)" fill="#263238" stroke="#fff" stroke-linecap="round" stroke-linejoin="round" stroke-width="1"/>
      <path id="Trazado_842" data-name="Trazado 842" d="M249.937,295l1.86-13.494H234.139L231.64,295Z" transform="translate(-75.323 -29.432)" fill="#263238" stroke="#fff" stroke-linecap="round" stroke-linejoin="round" stroke-width="1"/>
      <path id="Trazado_843" data-name="Trazado 843" d="M286.827,295l-.015-13.494H269.155L268.53,295Z" transform="translate(-57.336 -29.432)" fill="#263238" stroke="#fff" stroke-linecap="round" stroke-linejoin="round" stroke-width="1"/>
      <path id="Trazado_844" data-name="Trazado 844" d="M237.633,295l2.5-13.494H222.459L219.35,295Z" transform="translate(-81.316 -29.432)" fill="#263238" stroke="#fff" stroke-linecap="round" stroke-linejoin="round" stroke-width="1"/>
      <path id="Trazado_845" data-name="Trazado 845" d="M225.347,295l3.109-13.494H210.8L207.05,295Z" transform="translate(-87.313 -29.432)" fill="#263238" stroke="#fff" stroke-linecap="round" stroke-linejoin="round" stroke-width="1"/>
      <path id="Trazado_846" data-name="Trazado 846" d="M274.523,295l.625-13.494H257.475L256.24,295Z" transform="translate(-63.329 -29.432)" fill="#263238" stroke="#fff" stroke-linecap="round" stroke-linejoin="round" stroke-width="1"/>
      <path id="Trazado_847" data-name="Trazado 847" d="M349.142,295l-3.154-13.494H328.33L330.844,295Z" transform="translate(-28.178 -29.432)" fill="#263238" stroke="#fff" stroke-linecap="round" stroke-linejoin="round" stroke-width="1"/>
      <path id="Trazado_848" data-name="Trazado 848" d="M336.637,295l-2.514-13.494H316.45L318.339,295Z" transform="translate(-33.97 -29.432)" fill="#263238" stroke="#fff" stroke-linecap="round" stroke-linejoin="round" stroke-width="1"/>
      <path id="Trazado_849" data-name="Trazado 849" d="M311.637,295l-1.279-13.494H292.7L293.34,295Z" transform="translate(-45.551 -29.432)" fill="#263238" stroke="#fff" stroke-linecap="round" stroke-linejoin="round" stroke-width="1"/>
      <path id="Trazado_850" data-name="Trazado 850" d="M403.208,317.92h-202.6l-4.493,16.224H406.243Z" transform="translate(-92.643 -10.01)" fill="#263238" stroke="#fff" stroke-linecap="round" stroke-linejoin="round" stroke-width="1"/>
      <path id="Trazado_851" data-name="Trazado 851" d="M324.132,295l-1.889-13.494H304.57L305.849,295Z" transform="translate(-39.763 -29.432)" fill="#263238" stroke="#fff" stroke-linecap="round" stroke-linejoin="round" stroke-width="1"/>
      <rect id="Rectángulo_222" data-name="Rectángulo 222" width="450.28" height="6.594" transform="translate(0 352.609)" fill="#263238" stroke="#263238" stroke-linecap="round" stroke-linejoin="round" stroke-width="1"/>
    </g>
    <g id="freepik--Hands--inject-16" transform="translate(117.954 372.887)">
      <path id="Trazado_878" data-name="Trazado 878" d="M180.512,552.6s33.263-71.886,38.38-85.733,76.775-48.809,80.613-55.448,8.926-27.034,12.808-35.606.64-11.884,3.2-19.137,7.036-15.825.64-15.825-14.712,7.253-17.926,19.122-15.992,21.775-15.992,21.775l.64-7.912c.64-7.928,8.316-32.324,11.514-37.6s22.4-26.375,24.962-27.034,8.316,5.275,14.073,5.275,7.036-4.6,3.838-7.253S331.5,296,323.872,290.722s-15.992,0-15.992,0a104.828,104.828,0,0,0-7.036-10.55c-3.213-3.956-9.61-10.55-17.926-12.528a16.283,16.283,0,0,0-14.073,3.3,70.07,70.07,0,0,0-8.926-1.319c-6.4-.659-10.874,3.3-17.271,13.8S226,314.429,226,314.429s2.559-19.137,2.559-27.049S229.2,270.9,226,267.6s-6.4.659-7.676,12.528-15.992,53.424-17.851,64.633-22.388,73.205-33.278,89.045S97.46,518.879,97.46,518.879M272.639,319.136s8.926-26.39,11.514-26.39S296.307,300,296.307,300Z" transform="translate(-97.46 -266.482)" fill="#fff" stroke="#263238" stroke-linecap="round" stroke-linejoin="round" stroke-width="1"/>
      <path id="Trazado_879" data-name="Trazado 879" d="M180.262,352.846s10.9-35.161,12.719-44.208c1.294-6.379,5.876,1.058,5.876,1.058s8.926-6.578,8.926-1.058a17.023,17.023,0,0,0,3.347,9.676s-2.008-9.676,7.438-12.436,13.388,1.38,11.395,12.436,1.339,6.9,3.347,4.14-.669-9.676,11.4-14.506,18.773,0,16.75,10.366S256.1,337.65,256.1,352.847s2.678,29.012,5.355,29.012,17.435-15.886,20.112-5.52-2.678,10.366-16.75,22.787-50.935,22.8-56.96,35.269S197.8,454.42,193.785,455.11s-10.726-24.167-30.168-21.468-39.54,22.8-34.839,14.506,22.106-21.468,32.162-44.9S180.262,352.846,180.262,352.846Z" transform="translate(-82.527 -245.909)" fill="#c60f7b"/>
      <path id="Trazado_880" data-name="Trazado 880" d="M180.262,352.846s10.9-35.161,12.719-44.208c1.294-6.379,5.876,1.058,5.876,1.058s8.926-6.578,8.926-1.058a17.023,17.023,0,0,0,3.347,9.676s-2.008-9.676,7.438-12.436,13.388,1.38,11.395,12.436,1.339,6.9,3.347,4.14-.669-9.676,11.4-14.506,18.773,0,16.75,10.366S256.1,337.65,256.1,352.847s2.678,29.012,5.355,29.012,17.435-15.886,20.112-5.52-2.678,10.366-16.75,22.787-50.935,22.8-56.96,35.269S197.8,454.42,193.785,455.11s-10.726-24.167-30.168-21.468-39.54,22.8-34.839,14.506,22.106-21.468,32.162-44.9S180.262,352.846,180.262,352.846Z" transform="translate(-82.527 -245.909)" fill="#fff" opacity="0.4"/>
      <path id="Trazado_881" data-name="Trazado 881" d="M225.738,269.42s-17.851,31.665-21.749,38.259-7.036,12.528-11.529,15.165-7.676,8.572-6.4,10.55" transform="translate(-54.396 -264.915)" fill="#fff" stroke="#263238" stroke-linecap="round" stroke-linejoin="round" stroke-width="1"/>
      <path id="Trazado_882" data-name="Trazado 882" d="M191.782,297.81a36.2,36.2,0,0,1-7.676,9.891c-5.117,4.6-10.874,8.572-12.154,13.8a26.233,26.233,0,0,1-4.463,9.2" transform="translate(-63.314 -249.771)" fill="#fff" stroke="#263238" stroke-linecap="round" stroke-linejoin="round" stroke-width="1"/>
      <path id="Trazado_883" data-name="Trazado 883" d="M221.924,300.82s-12.793,8.572-15.992,11.209-4.463,8.572-4.463,8.572" transform="translate(-46.745 -248.166)" fill="#fff" stroke="#263238" stroke-linecap="round" stroke-linejoin="round" stroke-width="1"/>
      <line id="Línea_15" data-name="Línea 15" x1="11.529" y2="9.231" transform="translate(198.847 24.286)" fill="#fff" stroke="#263238" stroke-linecap="round" stroke-linejoin="round" stroke-width="1"/>
      <path id="Trazado_884" data-name="Trazado 884" d="M521.747,509.275s-58.225-58.684-62.7-70.537-3.2-14.506-7.036-23S436.657,392.567,436.017,382s-5.757-35.621-5.757-44.193-1.919-21.1-4.463-23.078-16.646-5.29-16.646-5.29-7.676-25.056-13.388-26.375-17.33,5.229-17.33,5.229-2.559-4.6-5.757-11.869-8.926-7.253-15.992-4.6S335.56,280.4,335.56,280.4s-15.992-12.528-21.109-4.6-11.514,22.419-12.793,27.693,7.572,5.091,9.491,3.772,9.119-6.778,9.119-6.778,14.013,10.918,16.572,16.868,7.676,33.628,8.316,38.9-1.919,21.759-1.919,21.759S331.082,355.6,325.385,349s-14.073-10.55-20.469-10.55-10.874,7.253-5.757,10.55,10.874,7.253,12.154,11.869,14.073,28.368,15.352,36.94,10.235,25.715,18.55,30.99,39.034,11.869,44.792,17.818,46.711,89.689,46.711,89.689M347.074,292.9h10.25L368.2,314.67Z" transform="translate(-0.196 -264.499)" fill="#fff" stroke="#263238" stroke-linecap="round" stroke-linejoin="round" stroke-width="1"/>
      <path id="Trazado_885" data-name="Trazado 885" d="M415.444,328.161s-7.438-21.468-16.081-17.266-10.056,6.226-10.056,6.226-4.7-7.667-12.734-4.846-10.726-2.76-10.726-2.76-10.726-6.9-17.42-1.38-1.339,20.716,1.339,33.152-3.347,36.618-4.686,38.688-19.443-6.21-21.451,1.38,6.025,24.182,22.121,29.7,28.145,8.3,34.215,14.506,21.451,51.124,34.854,54.574,28.145-16.576,42.218-15.2,32.162,11.746,24.8,2.76-38.2-41.4-40.165-53.179-9.387-20.042-12.734-25.562-9.4-38.688-11.484-47.689A68.609,68.609,0,0,1,415.444,328.161Z" transform="translate(12.671 -245.406)" fill="#c60f7b"/>
      <path id="Trazado_886" data-name="Trazado 886" d="M415.444,328.161s-7.438-21.468-16.081-17.266-10.056,6.226-10.056,6.226-4.7-7.667-12.734-4.846-10.726-2.76-10.726-2.76-10.726-6.9-17.42-1.38-1.339,20.716,1.339,33.152-3.347,36.618-4.686,38.688-19.443-6.21-21.451,1.38,6.025,24.182,22.121,29.7,28.145,8.3,34.215,14.506,21.451,51.124,34.854,54.574,28.145-16.576,42.218-15.2,32.162,11.746,24.8,2.76-38.2-41.4-40.165-53.179-9.387-20.042-12.734-25.562-9.4-38.688-11.484-47.689A68.609,68.609,0,0,1,415.444,328.161Z" transform="translate(12.671 -245.406)" fill="#fff" opacity="0.4"/>
      <path id="Trazado_887" data-name="Trazado 887" d="M351.72,282l8.926,17.144s3.645,9,7.334,12.789,6.9,6.64,8.286,11.393,1.83,7.115,1.83,7.115" transform="translate(26.516 -258.204)" fill="#fff" stroke="#263238" stroke-linecap="round" stroke-linejoin="round" stroke-width="1"/>
      <line id="Línea_16" data-name="Línea 16" x2="8.97" y2="19.137" transform="translate(408.94 44.941)" fill="#fff" stroke="#263238" stroke-linecap="round" stroke-linejoin="round" stroke-width="1"/>
      <line id="Línea_17" data-name="Línea 17" x2="11.514" y2="12.528" transform="translate(335.364 15.929)" fill="#fff" stroke="#263238" stroke-linecap="round" stroke-linejoin="round" stroke-width="1"/>
      <path id="Trazado_888" data-name="Trazado 888" d="M380,311.14a89.36,89.36,0,0,0,1.383,11.869" transform="translate(40.305 -242.661)" fill="#fff" stroke="#263238" stroke-linecap="round" stroke-linejoin="round" stroke-width="1"/>
      <path id="Trazado_889" data-name="Trazado 889" d="M349.06,304s5.519,4.263,6.441,9.952" transform="translate(25.219 -246.469)" fill="#fff" stroke="#263238" stroke-linecap="round" stroke-linejoin="round" stroke-width="1"/>
      <path id="Trazado_890" data-name="Trazado 890" d="M314.278,292.176s-5.058-2.085-5.058-6.256" transform="translate(5.793 -256.113)" fill="#fff" stroke="#263238" stroke-linecap="round" stroke-linejoin="round" stroke-width="1"/>
      <path id="Trazado_891" data-name="Trazado 891" d="M338.729,287.278s-3.659-2.9-3.659-6.548" transform="translate(18.398 -258.882)" fill="#fff" stroke="#263238" stroke-linecap="round" stroke-linejoin="round" stroke-width="1"/>
    </g>
  </g>
</svg>
