<svg xmlns="http://www.w3.org/2000/svg" width="261" height="73" viewBox="0 0 261 73">
  <g id="Grupo_148" data-name="Grupo 148" transform="translate(-78.449 -309.202)">
    <text id="Mercurio" transform="translate(78.449 364.202)" fill="#f7fafb" font-size="52" font-family="Poppins-Bold, Poppins" font-weight="700"><tspan x="0" y="0">Mercurio</tspan></text>
    <path id="_x2E_" d="M115.147,42.039a2.283,2.283,0,0,0,1.748-.728,2.423,2.423,0,0,0,.68-1.7h0V26.794a2.533,2.533,0,0,0-.68-1.8,2.287,2.287,0,0,0-1.748-.728H102.332a2.487,2.487,0,0,0-2.524,2.524h0V39.609a2.283,2.283,0,0,0,.728,1.748,2.533,2.533,0,0,0,1.8.68h12.815Z" transform="translate(221.875 322.025)" fill="#c60f7b"/>
  </g>
</svg>
