<svg id="menu" xmlns="http://www.w3.org/2000/svg" width="74.779" height="26.5" viewBox="0 0 74.779 26.5">
  <path id="Trazado_896" data-name="Trazado 896" d="M71.663,125.726H3.116C1.4,125.726,0,125.041,0,124.2s1.4-1.529,3.116-1.529H71.663c1.72,0,3.116.685,3.116,1.529S73.383,125.726,71.663,125.726Zm0,0" transform="translate(0 -110.947)" fill="#203442"/>
  <path id="Trazado_897" data-name="Trazado 897" d="M71.663,3.058H3.116C1.4,3.058,0,2.373,0,1.529S1.4,0,3.116,0H71.663c1.72,0,3.116.685,3.116,1.529S73.383,3.058,71.663,3.058Zm0,0" fill="#203442"/>
  <path id="Trazado_898" data-name="Trazado 898" d="M71.663,248.39H3.116C1.4,248.39,0,247.7,0,246.861s1.4-1.529,3.116-1.529H71.663c1.72,0,3.116.685,3.116,1.529S73.383,248.39,71.663,248.39Zm0,0" transform="translate(0 -221.89)" fill="#203442"/>
</svg>
