<svg xmlns="http://www.w3.org/2000/svg" width="147.323" height="172.468" viewBox="0 0 147.323 172.468">
  <defs>
    <style>
      .cls-1 {
        fill: #c60f7b;
      }
    </style>
  </defs>
  <path id="trash" class="cls-1" d="M0,48.571V36.781A15.451,15.451,0,0,1,4.933,26a15.227,15.227,0,0,1,10.852-4.379H31.569v-5.39a15.787,15.787,0,0,1,4.6-11.453A15.041,15.041,0,0,1,47.354.064H99.969A15.041,15.041,0,0,1,111.15,4.78a15.787,15.787,0,0,1,4.6,11.453v5.39h15.785A15.227,15.227,0,0,1,142.391,26a15.451,15.451,0,0,1,4.933,10.779v11.79A10.485,10.485,0,0,1,144.2,56.15a10,10,0,0,1-7.4,3.2v91.624a21.1,21.1,0,0,1-6.084,15.327,20.092,20.092,0,0,1-14.963,6.232H31.569A20.093,20.093,0,0,1,16.607,166.3a21.1,21.1,0,0,1-6.084-15.327V59.35a10,10,0,0,1-7.4-3.2A10.484,10.484,0,0,1,0,48.571Zm10.523,0H136.8V37.791a5.315,5.315,0,0,0-1.48-3.874,5.057,5.057,0,0,0-3.782-1.516H15.784A5.057,5.057,0,0,0,12,33.917a5.315,5.315,0,0,0-1.48,3.874V48.571Zm10.523,102.4a10.485,10.485,0,0,0,3.124,7.579,10,10,0,0,0,7.4,3.2h84.185a10,10,0,0,0,7.4-3.2,10.484,10.484,0,0,0,3.124-7.579V59.35H21.046v91.624Zm10.523-5.39V75.519a5.315,5.315,0,0,1,1.48-3.874,5.057,5.057,0,0,1,3.782-1.516H47.354a5.057,5.057,0,0,1,3.782,1.516,5.315,5.315,0,0,1,1.48,3.874v70.065a5.315,5.315,0,0,1-1.48,3.874,5.057,5.057,0,0,1-3.782,1.516H36.831a5.057,5.057,0,0,1-3.782-1.516,5.315,5.315,0,0,1-1.48-3.874Zm5.262,0H47.354V75.519H36.831ZM42.092,21.622h63.139v-5.39a5.315,5.315,0,0,0-1.48-3.874,5.057,5.057,0,0,0-3.782-1.516H47.354a5.057,5.057,0,0,0-3.782,1.516,5.315,5.315,0,0,0-1.48,3.874v5.39ZM63.139,145.584V75.519a5.315,5.315,0,0,1,1.48-3.874A5.057,5.057,0,0,1,68.4,70.129H78.923a5.057,5.057,0,0,1,3.782,1.516,5.315,5.315,0,0,1,1.48,3.874v70.065a5.315,5.315,0,0,1-1.48,3.874,5.057,5.057,0,0,1-3.782,1.516H68.4a5.057,5.057,0,0,1-3.782-1.516A5.315,5.315,0,0,1,63.139,145.584Zm5.262,0H78.923V75.519H68.4Zm26.308,0V75.519a5.315,5.315,0,0,1,1.48-3.874,5.057,5.057,0,0,1,3.782-1.516h10.523a5.057,5.057,0,0,1,3.782,1.516,5.315,5.315,0,0,1,1.48,3.874v70.065a5.315,5.315,0,0,1-1.48,3.874,5.057,5.057,0,0,1-3.782,1.516H99.97a5.057,5.057,0,0,1-3.782-1.516A5.315,5.315,0,0,1,94.708,145.584Zm5.262,0h10.523V75.519H99.969Z" transform="translate(0 -0.064)"/>
</svg>
