<svg xmlns="http://www.w3.org/2000/svg" width="104.583" height="134.78" viewBox="0 0 104.583 134.78">
  <defs>
    <style>
      .cls-1, .cls-2 {
        fill: #789eac;
        stroke: #4a8aa1;
      }

      .cls-1 {
        stroke-width: 0.505px;
      }
    </style>
  </defs>
  <g id="layer1" transform="translate(-32.214 -853.276)">
    <path id="path4293-4" class="cls-1" d="M63.753,1005.084a21.172,21.172,0,0,1-3.88-.684c-.582-.223-6.522-1.931-13.2-3.8s-12.188-3.435-12.246-3.491c-.167-.162,1.591-28.73,2-32.494,1.584-14.587,4.224-21.735,10.381-28.1,5.3-5.484,10.421-7.956,19.236-9.285,3.848-.58,27.546-.832,33.256-.353,9.079.761,14.879,2.1,20.338,4.686a19.563,19.563,0,0,1,6.385,4.518c6.578,6.332,9.613,15.11,11.072,32.022.814,9.438,1.738,28.788,1.39,29.114-.641.6-12.387,3.783-16.317,4.421C107.894,1003.954,73.1,1006.007,63.753,1005.084Z" transform="translate(-2 -17.534)"/>
    <ellipse id="path4295-9" class="cls-2" cx="28.394" cy="25.902" rx="28.394" ry="25.902" transform="translate(54.685 853.776)"/>
  </g>
</svg>
